font.ufo
<glyph name="numbersign" format="2">
  <advance width="667"/>
  <unicode hex="0023"/>
  <outline>
    <contour>
      <point x="138" y="0" type="line"/>
      <point x="182" y="0" type="line"/>
      <point x="297" y="730" type="line"/>
      <point x="253" y="730" type="line"/>
    </contour>
    <contour>
      <point x="370" y="0" type="line"/>
      <point x="414" y="0" type="line"/>
      <point x="529" y="730" type="line"/>
      <point x="485" y="730" type="line"/>
    </contour>
    <contour>
      <point x="39" y="223" type="line"/>
      <point x="593" y="223" type="line"/>
      <point x="593" y="261" type="line"/>
      <point x="39" y="261" type="line"/>
    </contour>
    <contour>
      <point x="74" y="469" type="line"/>
      <point x="628" y="469" type="line"/>
      <point x="628" y="508" type="line"/>
      <point x="74" y="508" type="line"/>
    </contour>
  </outline>
</glyph>
<glyph name="dollar" format="2">
  <advance width="658"/>
  <unicode hex="0024"/>
  <outline>
    <contour>
      <point x="331" y="2" type="curve" smooth="yes"/>
      <point x="499" y="2"/>
      <point x="587" y="83"/>
      <point x="587" y="197" type="curve" smooth="yes"/>
      <point x="587" y="305"/>
      <point x="506" y="383"/>
      <point x="366" y="396" type="curve" smooth="yes"/>
      <point x="300" y="402" type="line" smooth="yes"/>
      <point x="202" y="411"/>
      <point x="148" y="458"/>
      <point x="148" y="539" type="curve" smooth="yes"/>
      <point x="148" y="621"/>
      <point x="203" y="686"/>
      <point x="326" y="686" type="curve" smooth="yes"/>
      <point x="457" y="686"/>
      <point x="512" y="608"/>
      <point x="512" y="518" type="curve"/>
      <point x="558" y="518" type="line"/>
      <point x="558" y="637"/>
      <point x="481" y="729"/>
      <point x="326" y="729" type="curve" smooth="yes"/>
      <point x="177" y="729"/>
      <point x="101" y="647"/>
      <point x="101" y="539" type="curve" smooth="yes"/>
      <point x="101" y="431"/>
      <point x="175" y="370"/>
      <point x="294" y="358" type="curve" smooth="yes"/>
      <point x="360" y="352" type="line" smooth="yes"/>
      <point x="480" y="341"/>
      <point x="540" y="279"/>
      <point x="540" y="197" type="curve" smooth="yes"/>
      <point x="540" y="106"/>
      <point x="471" y="45"/>
      <point x="331" y="45" type="curve" smooth="yes"/>
      <point x="178" y="45"/>
      <point x="113" y="119"/>
      <point x="113" y="222" type="curve"/>
      <point x="67" y="222" type="line"/>
      <point x="67" y="93"/>
      <point x="152" y="2"/>
    </contour>
    <contour>
      <point x="308" y="-129" type="line"/>
      <point x="352" y="-129" type="line"/>
      <point x="352" y="17" type="line"/>
      <point x="308" y="17" type="line"/>
    </contour>
    <contour>
      <point x="304" y="701" type="line"/>
      <point x="348" y="701" type="line"/>
      <point x="348" y="827" type="line"/>
      <point x="304" y="827" type="line"/>
    </contour>
  </outline>
</glyph>
<glyph name="ampersand" format="2">
  <advance width="658"/>
  <unicode hex="0026"/>
  <outline>
    <contour>
      <point x="545" y="0" type="line"/>
      <point x="604" y="0" type="line"/>
      <point x="258" y="365" type="line" smooth="yes"/>
      <point x="190" y="436"/>
      <point x="161" y="483"/>
      <point x="161" y="553" type="curve" smooth="yes"/>
      <point x="161" y="642"/>
      <point x="210" y="692"/>
      <point x="324" y="692" type="curve" smooth="yes"/>
      <point x="373" y="692"/>
      <point x="435" y="688"/>
      <point x="487" y="682" type="curve"/>
      <point x="487" y="725" type="line"/>
      <point x="435" y="732"/>
      <point x="381" y="735"/>
      <point x="332" y="735" type="curve" smooth="yes"/>
      <point x="179" y="735"/>
      <point x="114" y="668"/>
      <point x="114" y="554" type="curve" smooth="yes"/>
      <point x="114" y="475"/>
      <point x="146" y="423"/>
      <point x="228" y="336" type="curve" smooth="yes"/>
    </contour>
    <contour>
      <point x="277" y="-16" type="curve" smooth="yes"/>
      <point x="470" y="-16"/>
      <point x="562" y="153"/>
      <point x="562" y="412" type="curve"/>
      <point x="518" y="412" type="line"/>
      <point x="518" y="171"/>
      <point x="440" y="27"/>
      <point x="277" y="27" type="curve" smooth="yes"/>
      <point x="180" y="27"/>
      <point x="88" y="86"/>
      <point x="88" y="196" type="curve" smooth="yes"/>
      <point x="88" y="275"/>
      <point x="133" y="343"/>
      <point x="205" y="380" type="curve"/>
      <point x="181" y="416" type="line"/>
      <point x="102" y="373"/>
      <point x="41" y="296"/>
      <point x="41" y="201" type="curve" smooth="yes"/>
      <point x="41" y="191" type="line" smooth="yes"/>
      <point x="41" y="68"/>
      <point x="148" y="-16"/>
    </contour>
    <contour>
      <point x="384" y="405" type="line"/>
      <point x="626" y="405" type="line"/>
      <point x="626" y="445" type="line"/>
      <point x="384" y="445" type="line"/>
    </contour>
  </outline>
</glyph>
<glyph name="parenleft" format="2">
  <advance width="361"/>
  <unicode hex="0028"/>
  <outline>
    <contour>
      <point x="280" y="-182" type="curve"/>
      <point x="335" y="-182" type="line"/>
      <point x="212" y="-41"/>
      <point x="142" y="98"/>
      <point x="142" y="300" type="curve" smooth="yes"/>
      <point x="142" y="501"/>
      <point x="213" y="638"/>
      <point x="335" y="776" type="curve"/>
      <point x="280" y="776" type="line"/>
      <point x="171" y="657"/>
      <point x="95" y="510"/>
      <point x="95" y="300" type="curve" smooth="yes"/>
      <point x="95" y="89"/>
      <point x="171" y="-59"/>
    </contour>
  </outline>
</glyph>
<glyph name="plus" format="2">
  <advance width="586"/>
  <unicode hex="002B"/>
  <outline>
    <contour>
      <point x="271" y="117" type="line"/>
      <point x="315" y="117" type="line"/>
      <point x="315" y="573" type="line"/>
      <point x="271" y="573" type="line"/>
    </contour>
    <contour>
      <point x="81" y="325" type="line"/>
      <point x="505" y="325" type="line"/>
      <point x="505" y="365" type="line"/>
      <point x="81" y="365" type="line"/>
    </contour>
  </outline>
</glyph>
<glyph name="comma" format="2">
  <advance width="253"/>
  <unicode hex="002C"/>
  <outline>
    <contour>
      <point x="87" y="-149" type="line"/>
      <point x="168" y="70" type="line"/>
      <point x="127" y="85" type="line"/>
      <point x="47" y="-134" type="line"/>
    </contour>
  </outline>
</glyph>
<glyph name="period" format="2">
  <advance width="253"/>
  <unicode hex="002E"/>
  <outline>
    <contour>
      <point x="94" y="0" type="line"/>
      <point x="159" y="0" type="line"/>
      <point x="159" y="71" type="line"/>
      <point x="94" y="71" type="line"/>
    </contour>
  </outline>
</glyph>
<glyph name="zero" format="2">
  <advance width="724"/>
  <unicode hex="0030"/>
  <outline>
    <contour>
      <point x="362" y="-16" type="curve" smooth="yes"/>
      <point x="550" y="-16"/>
      <point x="639" y="127"/>
      <point x="639" y="345" type="curve" smooth="yes"/>
      <point x="639" y="384" type="line" smooth="yes"/>
      <point x="639" y="610"/>
      <point x="544" y="749"/>
      <point x="362" y="749" type="curve" smooth="yes"/>
      <point x="180" y="749"/>
      <point x="86" y="610"/>
      <point x="86" y="384" type="curve" smooth="yes"/>
      <point x="86" y="345" type="line" smooth="yes"/>
      <point x="86" y="127"/>
      <point x="175" y="-16"/>
    </contour>
    <contour>
      <point x="362" y="28" type="curve" smooth="yes"/>
      <point x="210" y="28"/>
      <point x="134" y="137"/>
      <point x="134" y="365" type="curve" smooth="yes"/>
      <point x="134" y="600"/>
      <point x="213" y="704"/>
      <point x="362" y="704" type="curve" smooth="yes"/>
      <point x="511" y="704"/>
      <point x="590" y="600"/>
      <point x="590" y="365" type="curve" smooth="yes"/>
      <point x="590" y="137"/>
      <point x="515" y="28"/>
    </contour>
  </outline>
</glyph>
<glyph name="one" format="2">
  <advance width="411"/>
  <unicode hex="0031"/>
  <outline>
    <contour>
      <point x="222" y="0" type="line"/>
      <point x="270" y="0" type="line"/>
      <point x="270" y="730" type="line"/>
      <point x="51" y="730" type="line"/>
      <point x="51" y="687" type="line"/>
      <point x="241" y="687" type="line"/>
      <point x="222" y="703" type="line"/>
    </contour>
  </outline>
</glyph>
<glyph name="two" format="2">
  <advance width="609"/>
  <unicode hex="0032"/>
  <outline>
    <contour>
      <point x="88" y="0" type="line"/>
      <point x="552" y="0" type="line"/>
      <point x="552" y="43" type="line"/>
      <point x="120" y="43" type="line"/>
      <point x="136" y="20" type="line"/>
      <point x="136" y="106" type="line" smooth="yes"/>
      <point x="136" y="162"/>
      <point x="155" y="195"/>
      <point x="232" y="231" type="curve" smooth="yes"/>
      <point x="384" y="303" type="line" smooth="yes"/>
      <point x="472" y="345"/>
      <point x="536" y="411"/>
      <point x="536" y="514" type="curve" smooth="yes"/>
      <point x="536" y="527" type="line" smooth="yes"/>
      <point x="536" y="653"/>
      <point x="452" y="749"/>
      <point x="310" y="749" type="curve" smooth="yes"/>
      <point x="169" y="749"/>
      <point x="82" y="653"/>
      <point x="82" y="520" type="curve"/>
      <point x="129" y="520" type="line"/>
      <point x="129" y="636"/>
      <point x="202" y="705"/>
      <point x="310" y="705" type="curve" smooth="yes"/>
      <point x="420" y="705"/>
      <point x="490" y="636"/>
      <point x="490" y="520" type="curve" smooth="yes"/>
      <point x="490" y="429"/>
      <point x="440" y="375"/>
      <point x="369" y="342" type="curve" smooth="yes"/>
      <point x="218" y="270" type="line" smooth="yes"/>
      <point x="117" y="223"/>
      <point x="88" y="180"/>
      <point x="88" y="101" type="curve" smooth="yes"/>
    </contour>
  </outline>
</glyph>
<glyph name="three" format="2">
  <advance width="604"/>
  <unicode hex="0033"/>
  <outline>
    <contour>
      <point x="294" y="-16" type="curve" smooth="yes"/>
      <point x="446" y="-16"/>
      <point x="535" y="86"/>
      <point x="535" y="203" type="curve" smooth="yes"/>
      <point x="535" y="216" type="line" smooth="yes"/>
      <point x="535" y="338"/>
      <point x="446" y="437"/>
      <point x="298" y="437" type="curve" smooth="yes"/>
      <point x="254" y="437"/>
      <point x="221" y="427"/>
      <point x="195" y="412" type="curve"/>
      <point x="218" y="410" type="line"/>
      <point x="510" y="653" type="line"/>
      <point x="510" y="730" type="line"/>
      <point x="81" y="730" type="line"/>
      <point x="81" y="687" type="line"/>
      <point x="463" y="687" type="line"/>
      <point x="470" y="674" type="line"/>
      <point x="164" y="420" type="line"/>
      <point x="195" y="369" type="line"/>
      <point x="220" y="385"/>
      <point x="251" y="396"/>
      <point x="296" y="396" type="curve" smooth="yes"/>
      <point x="414" y="396"/>
      <point x="487" y="322"/>
      <point x="487" y="210" type="curve" smooth="yes"/>
      <point x="487" y="101"/>
      <point x="411" y="27"/>
      <point x="294" y="27" type="curve" smooth="yes"/>
      <point x="173" y="27"/>
      <point x="101" y="101"/>
      <point x="101" y="213" type="curve"/>
      <point x="53" y="213" type="line"/>
      <point x="53" y="84"/>
      <point x="141" y="-16"/>
    </contour>
  </outline>
</glyph>
<glyph name="four" format="2">
  <advance width="618"/>
  <unicode hex="0034"/>
  <outline>
    <contour>
      <point x="56" y="193" type="line"/>
      <point x="586" y="193" type="line"/>
      <point x="586" y="233" type="line"/>
      <point x="106" y="233" type="line"/>
      <point x="98" y="245" type="line"/>
      <point x="408" y="712" type="line"/>
      <point x="374" y="739" type="line"/>
      <point x="56" y="257" type="line"/>
    </contour>
    <contour>
      <point x="437" y="0" type="line"/>
      <point x="484" y="0" type="line"/>
      <point x="484" y="510" type="line"/>
      <point x="437" y="510" type="line"/>
    </contour>
  </outline>
</glyph>
<glyph name="seven" format="2">
  <advance width="555"/>
  <unicode hex="0037"/>
  <outline>
    <contour>
      <point x="161" y="0" type="line"/>
      <point x="210" y="0" type="line"/>
      <point x="511" y="666" type="line"/>
      <point x="511" y="730" type="line"/>
      <point x="60" y="730" type="line"/>
      <point x="60" y="687" type="line"/>
      <point x="461" y="687" type="line"/>
      <point x="467" y="676" type="line"/>
    </contour>
    <contour>
      <point x="60" y="556" type="line"/>
      <point x="103" y="556" type="line"/>
      <point x="103" y="730" type="line"/>
      <point x="60" y="730" type="line"/>
    </contour>
  </outline>
</glyph>
<glyph name="greater" format="2">
  <advance width="583"/>
  <unicode hex="003E"/>
  <outline>
    <contour>
      <point x="82" y="141" type="line"/>
      <point x="501" y="292" type="line"/>
      <point x="501" y="334" type="line"/>
      <point x="82" y="184" type="line"/>
    </contour>
    <contour>
      <point x="501" y="327" type="line"/>
      <point x="501" y="368" type="line"/>
      <point x="82" y="519" type="line"/>
      <point x="82" y="477" type="line"/>
    </contour>
    <contour>
      <point x="467" y="309" type="line"/>
      <point x="491" y="309" type="line"/>
      <point x="491" y="351" type="line"/>
      <point x="467" y="351" type="line"/>
    </contour>
  </outline>
</glyph>
<glyph name="question" format="2">
  <advance width="543"/>
  <unicode hex="003F"/>
  <outline>
    <contour>
      <point x="217" y="182" type="line"/>
      <point x="265" y="182" type="line"/>
      <point x="266" y="351" type="line"/>
      <point x="254" y="324" type="line"/>
      <point x="404" y="324"/>
      <point x="479" y="421"/>
      <point x="479" y="531" type="curve" smooth="yes"/>
      <point x="479" y="541" type="line" smooth="yes"/>
      <point x="479" y="653"/>
      <point x="396" y="749"/>
      <point x="266" y="749" type="curve" smooth="yes"/>
      <point x="131" y="749"/>
      <point x="48" y="651"/>
      <point x="48" y="523" type="curve"/>
      <point x="93" y="523" type="line"/>
      <point x="93" y="632"/>
      <point x="163" y="705"/>
      <point x="266" y="705" type="curve" smooth="yes"/>
      <point x="365" y="705"/>
      <point x="432" y="637"/>
      <point x="432" y="536" type="curve" smooth="yes"/>
      <point x="432" y="438"/>
      <point x="370" y="367"/>
      <point x="262" y="367" type="curve" smooth="yes"/>
      <point x="217" y="367" type="line"/>
    </contour>
    <contour>
      <point x="209" y="0" type="line"/>
      <point x="274" y="0" type="line"/>
      <point x="274" y="71" type="line"/>
      <point x="209" y="71" type="line"/>
    </contour>
  </outline>
</glyph>
<glyph name="at" format="2">
  <advance width="1118"/>
  <unicode hex="0040"/>
  <outline>
    <contour>
      <point x="564" y="-238" type="curve" smooth="yes"/>
      <point x="606" y="-238"/>
      <point x="638" y="-233"/>
      <point x="672" y="-226" type="curve"/>
      <point x="672" y="-183" type="line"/>
      <point x="638" y="-190"/>
      <point x="604" y="-195"/>
      <point x="564" y="-195" type="curve" smooth="yes"/>
      <point x="301" y="-195"/>
      <point x="127" y="-17"/>
      <point x="127" y="253" type="curve" smooth="yes"/>
      <point x="127" y="522"/>
      <point x="307" y="706"/>
      <point x="570" y="706" type="curve" smooth="yes"/>
      <point x="810" y="706"/>
      <point x="999" y="561"/>
      <point x="999" y="304" type="curve" smooth="yes"/>
      <point x="999" y="150"/>
      <point x="937" y="57"/>
      <point x="853" y="57" type="curve" smooth="yes"/>
      <point x="808" y="57"/>
      <point x="759" y="82"/>
      <point x="759" y="173" type="curve" smooth="yes"/>
      <point x="759" y="472" type="line"/>
      <point x="720" y="472" type="line"/>
      <point x="720" y="280" type="line"/>
      <point x="741" y="280" type="line"/>
      <point x="734" y="409"/>
      <point x="648" y="481"/>
      <point x="539" y="481" type="curve" smooth="yes"/>
      <point x="418" y="481"/>
      <point x="329" y="389"/>
      <point x="329" y="260" type="curve" smooth="yes"/>
      <point x="329" y="248" type="line" smooth="yes"/>
      <point x="329" y="118"/>
      <point x="417" y="20"/>
      <point x="538" y="20" type="curve" smooth="yes"/>
      <point x="645" y="20"/>
      <point x="731" y="88"/>
      <point x="739" y="233" type="curve"/>
      <point x="720" y="233" type="line"/>
      <point x="720" y="172" type="line" smooth="yes"/>
      <point x="720" y="60"/>
      <point x="783" y="15"/>
      <point x="854" y="15" type="curve" smooth="yes"/>
      <point x="964" y="15"/>
      <point x="1045" y="129"/>
      <point x="1045" y="305" type="curve" smooth="yes"/>
      <point x="1045" y="585"/>
      <point x="836" y="749"/>
      <point x="569" y="749" type="curve" smooth="yes"/>
      <point x="280" y="749"/>
      <point x="81" y="544"/>
      <point x="81" y="254" type="curve" smooth="yes"/>
      <point x="81" y="-40"/>
      <point x="275" y="-238"/>
    </contour>
    <contour>
      <point x="543" y="62" type="curve" smooth="yes"/>
      <point x="446" y="62"/>
      <point x="375" y="138"/>
      <point x="375" y="254" type="curve" smooth="yes"/>
      <point x="375" y="369"/>
      <point x="445" y="440"/>
      <point x="543" y="440" type="curve" smooth="yes"/>
      <point x="631" y="440"/>
      <point x="714" y="380"/>
      <point x="714" y="263" type="curve" smooth="yes"/>
      <point x="714" y="248" type="line" smooth="yes"/>
      <point x="714" y="124"/>
      <point x="636" y="62"/>
    </contour>
  </outline>
</glyph>
<glyph name="A" format="2">
  <advance width="740"/>
  <unicode hex="0041"/>
  <anchor x="699" y="10" name="ogonek"/>
  <anchor x="365" y="730" name="top"/>
  <outline>
    <contour>
      <point x="39" y="0" type="line"/>
      <point x="87" y="0" type="line"/>
      <point x="352" y="703" type="line"/>
      <point x="320" y="686" type="line"/>
      <point x="408" y="686" type="line"/>
      <point x="376" y="703" type="line"/>
      <point x="651" y="0" type="line"/>
      <point x="701" y="0" type="line"/>
      <point x="415" y="730" type="line"/>
      <point x="315" y="730" type="line"/>
    </contour>
    <contour>
      <point x="166" y="250" type="line"/>
      <point x="568" y="250" type="line"/>
      <point x="551" y="294" type="line"/>
      <point x="183" y="294" type="line"/>
    </contour>
  </outline>
</glyph>
<glyph name="B" format="2">
  <advance width="665"/>
  <unicode hex="0042"/>
  <outline>
    <contour>
      <point x="156" y="-2" type="line"/>
      <point x="373" y="-2" type="line" smooth="yes"/>
      <point x="515" y="-2"/>
      <point x="585" y="81"/>
      <point x="585" y="190" type="curve" smooth="yes"/>
      <point x="585" y="200" type="line" smooth="yes"/>
      <point x="585" y="319"/>
      <point x="498" y="383"/>
      <point x="373" y="383" type="curve" smooth="yes"/>
      <point x="156" y="383" type="line"/>
      <point x="156" y="349" type="line"/>
      <point x="381" y="349" type="line" smooth="yes"/>
      <point x="480" y="349"/>
      <point x="536" y="286"/>
      <point x="536" y="195" type="curve" smooth="yes"/>
      <point x="536" y="105"/>
      <point x="478" y="42"/>
      <point x="381" y="42" type="curve" smooth="yes"/>
      <point x="156" y="42" type="line"/>
    </contour>
    <contour>
      <point x="124" y="-2" type="line"/>
      <point x="173" y="-2" type="line"/>
      <point x="173" y="733" type="line"/>
      <point x="124" y="733" type="line"/>
    </contour>
    <contour>
      <point x="156" y="358" type="line"/>
      <point x="346" y="358" type="line" smooth="yes"/>
      <point x="475" y="358"/>
      <point x="555" y="420"/>
      <point x="555" y="536" type="curve" smooth="yes"/>
      <point x="555" y="546" type="line" smooth="yes"/>
      <point x="555" y="657"/>
      <point x="487" y="733"/>
      <point x="346" y="733" type="curve" smooth="yes"/>
      <point x="156" y="733" type="line"/>
      <point x="156" y="689" type="line"/>
      <point x="354" y="689" type="line" smooth="yes"/>
      <point x="458" y="689"/>
      <point x="506" y="627"/>
      <point x="506" y="540" type="curve" smooth="yes"/>
      <point x="506" y="454"/>
      <point x="458" y="392"/>
      <point x="354" y="392" type="curve" smooth="yes"/>
      <point x="156" y="392" type="line"/>
    </contour>
  </outline>
</glyph>
<glyph name="D" format="2">
  <advance width="801"/>
  <unicode hex="0044"/>
  <anchor x="393" y="0" name="bottom"/>
  <anchor x="206" y="365" name="center"/>
  <anchor x="387" y="730" name="top"/>
  <outline>
    <contour>
      <point x="153" y="-3" type="line"/>
      <point x="368" y="-3" type="line" smooth="yes"/>
      <point x="632" y="-3"/>
      <point x="745" y="183"/>
      <point x="745" y="359" type="curve" smooth="yes"/>
      <point x="745" y="374" type="line" smooth="yes"/>
      <point x="745" y="555"/>
      <point x="626" y="733"/>
      <point x="368" y="733" type="curve" smooth="yes"/>
      <point x="153" y="733" type="line"/>
      <point x="153" y="688" type="line"/>
      <point x="374" y="688" type="line" smooth="yes"/>
      <point x="591" y="688"/>
      <point x="696" y="540"/>
      <point x="696" y="366" type="curve" smooth="yes"/>
      <point x="696" y="198"/>
      <point x="595" y="42"/>
      <point x="374" y="42" type="curve" smooth="yes"/>
      <point x="153" y="42" type="line"/>
    </contour>
    <contour>
      <point x="124" y="-3" type="line"/>
      <point x="173" y="-3" type="line"/>
      <point x="173" y="733" type="line"/>
      <point x="124" y="733" type="line"/>
    </contour>
  </outline>
</glyph>
<glyph name="E" format="2">
  <advance width="606"/>
  <unicode hex="0045"/>
  <anchor x="330" y="0" name="bottom"/>
  <anchor x="535" y="10" name="ogonek"/>
  <anchor x="324" y="730" name="top"/>
  <outline>
    <contour>
      <point x="124" y="0" type="line"/>
      <point x="173" y="0" type="line"/>
      <point x="173" y="730" type="line"/>
      <point x="124" y="730" type="line"/>
    </contour>
    <contour>
      <point x="156" y="0" type="line"/>
      <point x="535" y="0" type="line"/>
      <point x="535" y="45" type="line"/>
      <point x="156" y="45" type="line"/>
    </contour>
    <contour>
      <point x="156" y="349" type="line"/>
      <point x="498" y="349" type="line"/>
      <point x="498" y="393" type="line"/>
      <point x="156" y="393" type="line"/>
    </contour>
    <contour>
      <point x="156" y="686" type="line"/>
      <point x="523" y="686" type="line"/>
      <point x="523" y="730" type="line"/>
      <point x="156" y="730" type="line"/>
    </contour>
  </outline>
</glyph>
<glyph name="G" format="2">
  <advance width="831"/>
  <unicode hex="0047"/>
  <anchor x="431" y="0" name="bottom"/>
  <anchor x="418" y="730" name="top"/>
  <outline>
    <contour>
      <point x="434" y="-16" type="curve" smooth="yes"/>
      <point x="563" y="-16"/>
      <point x="660" y="31"/>
      <point x="719" y="106" type="curve"/>
      <point x="719" y="300" type="line"/>
      <point x="672" y="300" type="line"/>
      <point x="672" y="84" type="line"/>
      <point x="694" y="148" type="line"/>
      <point x="643" y="74"/>
      <point x="550" y="28"/>
      <point x="434" y="28" type="curve" smooth="yes"/>
      <point x="215" y="28"/>
      <point x="116" y="188"/>
      <point x="116" y="367" type="curve" smooth="yes"/>
      <point x="116" y="550"/>
      <point x="224" y="704"/>
      <point x="418" y="704" type="curve" smooth="yes"/>
      <point x="554" y="704"/>
      <point x="663" y="628"/>
      <point x="680" y="491" type="curve"/>
      <point x="729" y="491" type="line"/>
      <point x="711" y="645"/>
      <point x="591" y="749"/>
      <point x="418" y="749" type="curve" smooth="yes"/>
      <point x="185" y="749"/>
      <point x="67" y="560"/>
      <point x="67" y="375" type="curve" smooth="yes"/>
      <point x="67" y="360" type="line" smooth="yes"/>
      <point x="67" y="177"/>
      <point x="178" y="-16"/>
    </contour>
    <contour>
      <point x="407" y="287" type="line"/>
      <point x="788" y="287" type="line"/>
      <point x="788" y="329" type="line"/>
      <point x="407" y="329" type="line"/>
    </contour>
  </outline>
</glyph>
<glyph name="H" format="2">
  <advance width="809"/>
  <unicode hex="0048"/>
  <anchor x="404" y="0" name="bottom"/>
  <anchor x="404" y="606" name="center"/>
  <anchor x="404" y="730" name="top"/>
  <outline>
    <contour>
      <point x="636" y="0" type="line"/>
      <point x="685" y="0" type="line"/>
      <point x="685" y="730" type="line"/>
      <point x="636" y="730" type="line"/>
    </contour>
    <contour>
      <point x="124" y="0" type="line"/>
      <point x="173" y="0" type="line"/>
      <point x="173" y="730" type="line"/>
      <point x="124" y="730" type="line"/>
    </contour>
    <contour>
      <point x="159" y="339" type="line"/>
      <point x="650" y="339" type="line"/>
      <point x="650" y="383" type="line"/>
      <point x="159" y="383" type="line"/>
    </contour>
  </outline>
</glyph>
<glyph name="J" format="2">
  <advance width="636"/>
  <unicode hex="004A"/>
  <anchor x="292" y="0" name="bottom"/>
  <anchor x="335" y="730" name="top"/>
  <outline>
    <contour>
      <point x="284" y="-16" type="curve" smooth="yes"/>
      <point x="432" y="-16"/>
      <point x="524" y="76"/>
      <point x="524" y="228" type="curve" smooth="yes"/>
      <point x="524" y="704" type="line"/>
      <point x="475" y="704" type="line"/>
      <point x="475" y="220" type="line" smooth="yes"/>
      <point x="475" y="101"/>
      <point x="405" y="29"/>
      <point x="284" y="29" type="curve" smooth="yes"/>
      <point x="163" y="29"/>
      <point x="93" y="101"/>
      <point x="93" y="220" type="curve" smooth="yes"/>
      <point x="93" y="255" type="line"/>
      <point x="44" y="255" type="line"/>
      <point x="44" y="228" type="line" smooth="yes"/>
      <point x="44" y="76"/>
      <point x="136" y="-16"/>
    </contour>
    <contour>
      <point x="142" y="686" type="line"/>
      <point x="524" y="686" type="line"/>
      <point x="524" y="730" type="line"/>
      <point x="142" y="730" type="line"/>
    </contour>
  </outline>
</glyph>
<glyph name="M" format="2">
  <advance width="886"/>
  <unicode hex="004D"/>
  <outline>
    <contour>
      <point x="124" y="0" type="line"/>
      <point x="169" y="0" type="line"/>
      <point x="169" y="673" type="line"/>
      <point x="162" y="673" type="line"/>
      <point x="404" y="158" type="line"/>
      <point x="477" y="158" type="line"/>
      <point x="719" y="673" type="line"/>
      <point x="713" y="673" type="line"/>
      <point x="713" y="0" type="line"/>
      <point x="762" y="0" type="line"/>
      <point x="762" y="730" type="line"/>
      <point x="699" y="730" type="line"/>
      <point x="452" y="203" type="line"/>
      <point x="431" y="203" type="line"/>
      <point x="184" y="730" type="line"/>
      <point x="124" y="730" type="line"/>
    </contour>
  </outline>
</glyph>
<glyph name="N" format="2">
  <advance width="829"/>
  <unicode hex="004E"/>
  <anchor x="395" y="0" name="bottom"/>
  <anchor x="432" y="730" name="top"/>
  <outline>
    <contour>
      <point x="124" y="0" type="line"/>
      <point x="171" y="0" type="line"/>
      <point x="171" y="699" type="line"/>
      <point x="151" y="686" type="line"/>
      <point x="183" y="686" type="line"/>
      <point x="619" y="0" type="line"/>
      <point x="705" y="0" type="line"/>
      <point x="705" y="730" type="line"/>
      <point x="657" y="730" type="line"/>
      <point x="657" y="31" type="line"/>
      <point x="677" y="45" type="line"/>
      <point x="645" y="45" type="line"/>
      <point x="210" y="730" type="line"/>
      <point x="124" y="730" type="line"/>
    </contour>
  </outline>
</glyph>
<glyph name="P" format="2">
  <advance width="618"/>
  <unicode hex="0050"/>
  <outline>
    <contour>
      <point x="153" y="283" type="line"/>
      <point x="325" y="283" type="line" smooth="yes"/>
      <point x="495" y="283"/>
      <point x="568" y="382"/>
      <point x="568" y="502" type="curve" smooth="yes"/>
      <point x="568" y="513" type="line" smooth="yes"/>
      <point x="568" y="634"/>
      <point x="495" y="733"/>
      <point x="325" y="733" type="curve" smooth="yes"/>
      <point x="153" y="733" type="line"/>
      <point x="153" y="689" type="line"/>
      <point x="331" y="689" type="line" smooth="yes"/>
      <point x="466" y="689"/>
      <point x="519" y="608"/>
      <point x="519" y="508" type="curve" smooth="yes"/>
      <point x="519" y="408"/>
      <point x="466" y="327"/>
      <point x="331" y="327" type="curve" smooth="yes"/>
      <point x="153" y="327" type="line"/>
    </contour>
    <contour>
      <point x="124" y="0" type="line"/>
      <point x="173" y="0" type="line"/>
      <point x="173" y="733" type="line"/>
      <point x="124" y="733" type="line"/>
    </contour>
  </outline>
</glyph>
<glyph name="Q" format="2">
  <advance width="871"/>
  <unicode hex="0051"/>
  <anchor x="436" y="0" name="bottom"/>
  <anchor x="436" y="365" name="center"/>
  <anchor x="566" y="10" name="ogonek"/>
  <anchor x="436" y="730" name="top"/>
  <outline>
    <contour>
      <point x="569" y="-206" type="curve" smooth="yes"/>
      <point x="687" y="-206" type="line"/>
      <point x="687" y="-161" type="line"/>
      <point x="562" y="-161" type="line" smooth="yes"/>
      <point x="497" y="-161"/>
      <point x="463" y="-128"/>
      <point x="463" y="-63" type="curve" smooth="yes"/>
      <point x="463" y="14" type="line"/>
      <point x="416" y="14" type="line"/>
      <point x="416" y="-56" type="line" smooth="yes"/>
      <point x="416" y="-160"/>
      <point x="471" y="-206"/>
    </contour>
    <component base="O"/>
  </outline>
</glyph>
<glyph name="T" format="2">
  <advance width="581"/>
  <unicode hex="0054"/>
  <anchor x="290" y="0" name="bottom"/>
  <anchor x="290" y="365" name="center"/>
  <anchor x="290" y="730" name="top"/>
  <outline>
    <contour>
      <point x="266" y="0" type="line"/>
      <point x="315" y="0" type="line"/>
      <point x="315" y="703" type="line"/>
      <point x="266" y="703" type="line"/>
    </contour>
    <contour>
      <point x="31" y="686" type="line"/>
      <point x="550" y="686" type="line"/>
      <point x="550" y="730" type="line"/>
      <point x="31" y="730" type="line"/>
    </contour>
  </outline>
</glyph>
<glyph name="V" format="2">
  <advance width="687"/>
  <unicode hex="0056"/>
  <outline>
    <contour>
      <point x="297" y="0" type="line"/>
      <point x="397" y="0" type="line"/>
      <point x="653" y="730" type="line"/>
      <point x="603" y="730" type="line"/>
      <point x="358" y="27" type="line"/>
      <point x="393" y="45" type="line"/>
      <point x="304" y="45" type="line"/>
      <point x="336" y="27" type="line"/>
      <point x="77" y="730" type="line"/>
      <point x="27" y="730" type="line"/>
    </contour>
  </outline>
</glyph>
<glyph name="W" format="2">
  <advance width="1019"/>
  <unicode hex="0057"/>
  <anchor x="517" y="0" name="bottom"/>
  <anchor x="510" y="730" name="top"/>
  <outline>
    <contour>
      <point x="245" y="0" type="line"/>
      <point x="351" y="0" type="line"/>
      <point x="522" y="696" type="line"/>
      <point x="475" y="696" type="line"/>
      <point x="313" y="30" type="line"/>
      <point x="333" y="45" type="line"/>
      <point x="263" y="45" type="line"/>
      <point x="283" y="30" type="line"/>
      <point x="87" y="730" type="line"/>
      <point x="38" y="730" type="line"/>
    </contour>
    <contour>
      <point x="684" y="0" type="line"/>
      <point x="790" y="0" type="line"/>
      <point x="982" y="730" type="line"/>
      <point x="933" y="730" type="line"/>
      <point x="752" y="30" type="line"/>
      <point x="774" y="45" type="line"/>
      <point x="701" y="45" type="line"/>
      <point x="723" y="30" type="line"/>
      <point x="545" y="696" type="line"/>
      <point x="498" y="696" type="line"/>
    </contour>
  </outline>
</glyph>
<glyph name="X" format="2">
  <advance width="671"/>
  <unicode hex="0058"/>
  <outline>
    <contour>
      <point x="22" y="1" type="line"/>
      <point x="76" y="0" type="line"/>
      <point x="326" y="344" type="line"/>
      <point x="337" y="344" type="line"/>
      <point x="584" y="0" type="line"/>
      <point x="638" y="0" type="line"/>
      <point x="362" y="384" type="line"/>
      <point x="360" y="363" type="line"/>
      <point x="624" y="730" type="line"/>
      <point x="571" y="730" type="line"/>
      <point x="342" y="410" type="line"/>
      <point x="330" y="410" type="line"/>
      <point x="105" y="730" type="line"/>
      <point x="51" y="730" type="line"/>
      <point x="305" y="370" type="line"/>
      <point x="307" y="391" type="line"/>
    </contour>
  </outline>
</glyph>
<glyph name="Y" format="2">
  <advance width="646"/>
  <unicode hex="0059"/>
  <anchor x="327" y="0" name="bottom"/>
  <anchor x="321" y="730" name="top"/>
  <outline>
    <contour>
      <point x="265" y="288" type="line"/>
      <point x="388" y="288" type="line"/>
      <point x="615" y="730" type="line"/>
      <point x="566" y="730" type="line"/>
      <point x="355" y="315" type="line"/>
      <point x="378" y="329" type="line"/>
      <point x="277" y="329" type="line"/>
      <point x="301" y="315" type="line"/>
      <point x="79" y="730" type="line"/>
      <point x="28" y="730" type="line"/>
    </contour>
    <contour>
      <point x="303" y="0" type="line"/>
      <point x="351" y="0" type="line"/>
      <point x="351" y="302" type="line"/>
      <point x="303" y="302" type="line"/>
    </contour>
  </outline>
</glyph>
<glyph name="bracketleft" format="2">
  <advance width="361"/>
  <unicode hex="005B"/>
  <outline>
    <contour>
      <point x="130" y="-182" type="line"/>
      <point x="177" y="-182" type="line"/>
      <point x="177" y="776" type="line"/>
      <point x="130" y="776" type="line"/>
    </contour>
    <contour>
      <point x="141" y="-182" type="line"/>
      <point x="295" y="-182" type="line"/>
      <point x="295" y="-142" type="line"/>
      <point x="141" y="-142" type="line"/>
    </contour>
    <contour>
      <point x="141" y="736" type="line"/>
      <point x="295" y="736" type="line"/>
      <point x="295" y="776" type="line"/>
      <point x="141" y="776" type="line"/>
    </contour>
  </outline>
</glyph>
<glyph name="a" format="2">
  <advance width="561"/>
  <unicode hex="0061"/>
  <anchor x="463" y="10" name="ogonek"/>
  <anchor x="275" y="524" name="top"/>
  <outline>
    <contour>
      <point x="425" y="0" type="line"/>
      <point x="463" y="0" type="line"/>
      <point x="463" y="343" type="line" smooth="yes"/>
      <point x="463" y="468"/>
      <point x="408" y="529"/>
      <point x="251" y="529" type="curve" smooth="yes"/>
      <point x="209" y="529"/>
      <point x="160" y="525"/>
      <point x="120" y="520" type="curve"/>
      <point x="120" y="476" type="line"/>
      <point x="160" y="482"/>
      <point x="215" y="485"/>
      <point x="271" y="485" type="curve" smooth="yes"/>
      <point x="375" y="485"/>
      <point x="416" y="435"/>
      <point x="416" y="350" type="curve" smooth="yes"/>
      <point x="416" y="157" type="line"/>
      <point x="425" y="157" type="line"/>
    </contour>
    <contour>
      <point x="241" y="-14" type="curve" smooth="yes"/>
      <point x="346" y="-14"/>
      <point x="429" y="46"/>
      <point x="435" y="169" type="curve"/>
      <point x="416" y="191" type="line"/>
      <point x="412" y="66"/>
      <point x="326" y="26"/>
      <point x="247" y="26" type="curve" smooth="yes"/>
      <point x="163" y="26"/>
      <point x="104" y="73"/>
      <point x="104" y="150" type="curve" smooth="yes"/>
      <point x="104" y="222"/>
      <point x="155" y="271"/>
      <point x="247" y="271" type="curve" smooth="yes"/>
      <point x="420" y="271" type="line"/>
      <point x="420" y="310" type="line"/>
      <point x="253" y="310" type="line" smooth="yes"/>
      <point x="128" y="310"/>
      <point x="57" y="249"/>
      <point x="57" y="150" type="curve" smooth="yes"/>
      <point x="57" y="45"/>
      <point x="136" y="-14"/>
    </contour>
  </outline>
</glyph>
<glyph name="d" format="2">
  <advance width="678"/>
  <unicode hex="0064"/>
  <anchor x="362" y="0" name="bottom"/>
  <anchor x="486" y="640" name="center"/>
  <anchor x="548" y="730" name="top"/>
  <anchor x="575" y="534" name="topright"/>
  <outline>
    <contour>
      <point x="314" y="-16" type="curve" smooth="yes"/>
      <point x="456" y="-16"/>
      <point x="552" y="86"/>
      <point x="554" y="233" type="curve"/>
      <point x="535" y="233" type="line"/>
      <point x="535" y="0" type="line"/>
      <point x="574" y="0" type="line"/>
      <point x="574" y="730" type="line"/>
      <point x="526" y="730" type="line"/>
      <point x="526" y="352" type="line"/>
      <point x="551" y="294" type="line"/>
      <point x="549" y="432"/>
      <point x="458" y="540"/>
      <point x="313" y="540" type="curve" smooth="yes"/>
      <point x="151" y="540"/>
      <point x="60" y="402"/>
      <point x="60" y="266" type="curve" smooth="yes"/>
      <point x="60" y="257" type="line" smooth="yes"/>
      <point x="60" y="115"/>
      <point x="155" y="-16"/>
    </contour>
    <contour>
      <point x="318" y="27" type="curve" smooth="yes"/>
      <point x="187" y="27"/>
      <point x="108" y="132"/>
      <point x="108" y="262" type="curve" smooth="yes"/>
      <point x="108" y="385"/>
      <point x="183" y="497"/>
      <point x="318" y="497" type="curve" smooth="yes"/>
      <point x="444" y="497"/>
      <point x="528" y="404"/>
      <point x="528" y="289" type="curve" smooth="yes"/>
      <point x="528" y="237" type="line" smooth="yes"/>
      <point x="528" y="116"/>
      <point x="442" y="27"/>
    </contour>
  </outline>
</glyph>
<glyph name="f" format="2">
  <advance width="371"/>
  <unicode hex="0066"/>
  <outline>
    <contour>
      <point x="120" y="0" type="line"/>
      <point x="167" y="0" type="line"/>
      <point x="167" y="594" type="line" smooth="yes"/>
      <point x="167" y="654"/>
      <point x="200" y="689"/>
      <point x="264" y="689" type="curve" smooth="yes"/>
      <point x="344" y="689" type="line"/>
      <point x="344" y="731" type="line"/>
      <point x="275" y="731" type="line" smooth="yes"/>
      <point x="170" y="731"/>
      <point x="120" y="683"/>
      <point x="120" y="581" type="curve" smooth="yes"/>
    </contour>
    <contour>
      <point x="38" y="482" type="line"/>
      <point x="356" y="482" type="line"/>
      <point x="356" y="521" type="line"/>
      <point x="38" y="521" type="line"/>
    </contour>
  </outline>
</glyph>
<glyph name="g" format="2">
  <advance width="667"/>
  <unicode hex="0067"/>
  <anchor x="309" y="-300" name="bottom"/>
  <anchor x="338" y="524" name="top"/>
  <outline>
    <contour>
      <point x="305" y="-205" type="curve" smooth="yes"/>
      <point x="497" y="-205"/>
      <point x="569" y="-137"/>
      <point x="569" y="51" type="curve" smooth="yes"/>
      <point x="569" y="524" type="line"/>
      <point x="530" y="524" type="line"/>
      <point x="530" y="324" type="line"/>
      <point x="549" y="294" type="line"/>
      <point x="548" y="427"/>
      <point x="458" y="540"/>
      <point x="311" y="540" type="curve" smooth="yes"/>
      <point x="150" y="540"/>
      <point x="60" y="403"/>
      <point x="60" y="269" type="curve" smooth="yes"/>
      <point x="60" y="260" type="line" smooth="yes"/>
      <point x="60" y="120"/>
      <point x="152" y="-13"/>
      <point x="310" y="-13" type="curve" smooth="yes"/>
      <point x="451" y="-13"/>
      <point x="543" y="91"/>
      <point x="545" y="233" type="curve"/>
      <point x="522" y="160" type="line"/>
      <point x="522" y="51" type="line" smooth="yes"/>
      <point x="522" y="-106"/>
      <point x="469" y="-162"/>
      <point x="309" y="-162" type="curve" smooth="yes"/>
      <point x="262" y="-162"/>
      <point x="207" y="-157"/>
      <point x="159" y="-150" type="curve"/>
      <point x="159" y="-192" type="line"/>
      <point x="204" y="-200"/>
      <point x="257" y="-205"/>
    </contour>
    <contour>
      <point x="316" y="32" type="curve" smooth="yes"/>
      <point x="186" y="32"/>
      <point x="108" y="137"/>
      <point x="108" y="265" type="curve" smooth="yes"/>
      <point x="108" y="386"/>
      <point x="182" y="498"/>
      <point x="316" y="498" type="curve" smooth="yes"/>
      <point x="440" y="498"/>
      <point x="523" y="405"/>
      <point x="523" y="292" type="curve" smooth="yes"/>
      <point x="523" y="240" type="line" smooth="yes"/>
      <point x="523" y="120"/>
      <point x="438" y="32"/>
    </contour>
  </outline>
</glyph>
<glyph name="h" format="2">
  <advance width="630"/>
  <unicode hex="0068"/>
  <anchor x="318" y="0" name="bottom"/>
  <anchor x="192" y="640" name="center"/>
  <anchor x="128" y="730" name="top"/>
  <outline>
    <contour>
      <point x="104" y="0" type="line"/>
      <point x="152" y="0" type="line"/>
      <point x="152" y="316" type="line" smooth="yes"/>
      <point x="152" y="421"/>
      <point x="218" y="494"/>
      <point x="324" y="494" type="curve" smooth="yes"/>
      <point x="426" y="494"/>
      <point x="484" y="425"/>
      <point x="484" y="321" type="curve" smooth="yes"/>
      <point x="484" y="0" type="line"/>
      <point x="532" y="0" type="line"/>
      <point x="532" y="310" type="line" smooth="yes"/>
      <point x="532" y="449"/>
      <point x="464" y="538"/>
      <point x="334" y="538" type="curve" smooth="yes"/>
      <point x="332" y="538" type="line" smooth="yes"/>
      <point x="199" y="538"/>
      <point x="133" y="443"/>
      <point x="133" y="308" type="curve"/>
      <point x="152" y="346" type="line"/>
      <point x="152" y="730" type="line"/>
      <point x="104" y="730" type="line"/>
    </contour>
  </outline>
</glyph>
<glyph name="i" format="2">
  <advance width="287"/>
  <unicode hex="0069"/>
  <anchor x="157" y="0" name="bottom"/>
  <outline>
    <contour>
      <point x="133" y="0" type="line"/>
      <point x="181" y="0" type="line"/>
      <point x="181" y="524" type="line"/>
      <point x="133" y="524" type="line"/>
    </contour>
    <contour>
      <point x="45" y="482" type="line"/>
      <point x="181" y="482" type="line"/>
      <point x="181" y="524" type="line"/>
      <point x="45" y="524" type="line"/>
    </contour>
    <contour>
      <point x="135" y="637" type="curve" smooth="yes"/>
      <point x="163" y="637"/>
      <point x="177" y="653"/>
      <point x="177" y="676" type="curve" smooth="yes"/>
      <point x="177" y="699"/>
      <point x="163" y="716"/>
      <point x="135" y="716" type="curve" smooth="yes"/>
      <point x="108" y="716"/>
      <point x="94" y="699"/>
      <point x="94" y="676" type="curve" smooth="yes"/>
      <point x="94" y="653"/>
      <point x="108" y="637"/>
    </contour>
  </outline>
</glyph>
<glyph name="j" format="2">
  <advance width="295"/>
  <unicode hex="006A"/>
  <outline>
    <contour>
      <point x="-5" y="-202" type="line"/>
      <point x="48" y="-202" type="line" smooth="yes"/>
      <point x="150" y="-202"/>
      <point x="190" y="-160"/>
      <point x="190" y="-48" type="curve" smooth="yes"/>
      <point x="190" y="524" type="line"/>
      <point x="143" y="524" type="line"/>
      <point x="143" y="-62" type="line" smooth="yes"/>
      <point x="143" y="-126"/>
      <point x="115" y="-158"/>
      <point x="61" y="-158" type="curve" smooth="yes"/>
      <point x="-5" y="-158" type="line"/>
    </contour>
    <contour>
      <point x="53" y="482" type="line"/>
      <point x="190" y="482" type="line"/>
      <point x="190" y="524" type="line"/>
      <point x="53" y="524" type="line"/>
    </contour>
    <contour>
      <point x="144" y="646" type="curve" smooth="yes"/>
      <point x="171" y="646"/>
      <point x="185" y="662"/>
      <point x="185" y="686" type="curve" smooth="yes"/>
      <point x="185" y="709"/>
      <point x="171" y="726"/>
      <point x="144" y="726" type="curve" smooth="yes"/>
      <point x="117" y="726"/>
      <point x="103" y="709"/>
      <point x="103" y="686" type="curve" smooth="yes"/>
      <point x="103" y="662"/>
      <point x="117" y="646"/>
    </contour>
  </outline>
</glyph>
<glyph name="k" format="2">
  <advance width="520"/>
  <unicode hex="006B"/>
  <anchor x="305" y="0" name="bottom"/>
  <anchor x="128" y="730" name="top"/>
  <outline>
    <contour>
      <point x="453" y="0" type="line"/>
      <point x="512" y="0" type="line"/>
      <point x="227" y="309" type="line"/>
      <point x="226" y="279" type="line"/>
      <point x="455" y="524" type="line"/>
      <point x="400" y="524" type="line"/>
      <point x="143" y="247" type="line"/>
      <point x="226" y="247" type="line"/>
    </contour>
    <contour>
      <point x="104" y="0" type="line"/>
      <point x="152" y="0" type="line"/>
      <point x="152" y="730" type="line"/>
      <point x="104" y="730" type="line"/>
    </contour>
  </outline>
</glyph>
<glyph name="l" format="2">
  <advance width="259"/>
  <unicode hex="006C"/>
  <anchor x="131" y="0" name="bottom"/>
  <anchor x="131" y="480" name="center"/>
  <anchor x="96" y="730" name="top"/>
  <anchor x="157" y="534" name="topright"/>
  <outline>
    <contour>
      <point x="107" y="0" type="line"/>
      <point x="155" y="0" type="line"/>
      <point x="155" y="730" type="line"/>
      <point x="107" y="730" type="line"/>
    </contour>
    <contour>
      <point x="27" y="689" type="line"/>
      <point x="155" y="689" type="line"/>
      <point x="155" y="730" type="line"/>
      <point x="27" y="730" type="line"/>
    </contour>
  </outline>
</glyph>
<glyph name="n" format="2">
  <advance width="630"/>
  <unicode hex="006E"/>
  <anchor x="318" y="0" name="bottom"/>
  <anchor x="323" y="524" name="top"/>
  <outline>
    <contour>
      <point x="104" y="0" type="line"/>
      <point x="152" y="0" type="line"/>
      <point x="152" y="317" type="line" smooth="yes"/>
      <point x="152" y="422"/>
      <point x="219" y="494"/>
      <point x="324" y="494" type="curve" smooth="yes"/>
      <point x="427" y="494"/>
      <point x="484" y="424"/>
      <point x="484" y="321" type="curve" smooth="yes"/>
      <point x="484" y="0" type="line"/>
      <point x="532" y="0" type="line"/>
      <point x="532" y="310" type="line" smooth="yes"/>
      <point x="532" y="450"/>
      <point x="464" y="538"/>
      <point x="333" y="538" type="curve" smooth="yes"/>
      <point x="331" y="538" type="line" smooth="yes"/>
      <point x="198" y="538"/>
      <point x="131" y="446"/>
      <point x="131" y="310" type="curve"/>
      <point x="143" y="310" type="line"/>
      <point x="143" y="524" type="line"/>
      <point x="104" y="524" type="line"/>
    </contour>
  </outline>
</glyph>
<glyph name="o" format="2">
  <advance width="660"/>
  <unicode hex="006F"/>
  <note>
o
</note>
  <anchor x="330" y="0" name="bottom"/>
  <anchor x="330" y="262" name="center"/>
  <anchor x="443" y="9" name="ogonek"/>
  <anchor x="330" y="524" name="top"/>
  <outline>
    <contour>
      <point x="330" y="-16" type="curve" smooth="yes"/>
      <point x="505" y="-16"/>
      <point x="600" y="122"/>
      <point x="600" y="257" type="curve" smooth="yes"/>
      <point x="600" y="266" type="line" smooth="yes"/>
      <point x="600" y="405"/>
      <point x="500" y="540"/>
      <point x="330" y="540" type="curve" smooth="yes"/>
      <point x="159" y="540"/>
      <point x="60" y="405"/>
      <point x="60" y="266" type="curve" smooth="yes"/>
      <point x="60" y="257" type="line" smooth="yes"/>
      <point x="60" y="122"/>
      <point x="155" y="-16"/>
    </contour>
    <contour>
      <point x="330" y="28" type="curve" smooth="yes"/>
      <point x="187" y="28"/>
      <point x="108" y="138"/>
      <point x="108" y="262" type="curve" smooth="yes"/>
      <point x="108" y="389"/>
      <point x="190" y="496"/>
      <point x="330" y="496" type="curve" smooth="yes"/>
      <point x="469" y="496"/>
      <point x="552" y="389"/>
      <point x="552" y="262" type="curve" smooth="yes"/>
      <point x="552" y="138"/>
      <point x="473" y="28"/>
    </contour>
  </outline>
</glyph>
<glyph name="p" format="2">
  <advance width="678"/>
  <unicode hex="0070"/>
  <outline>
    <contour>
      <point x="104" y="-200" type="line"/>
      <point x="152" y="-200" type="line"/>
      <point x="152" y="163" type="line"/>
      <point x="126" y="232" type="line"/>
      <point x="128" y="91"/>
      <point x="222" y="-16"/>
      <point x="365" y="-16" type="curve" smooth="yes"/>
      <point x="527" y="-16"/>
      <point x="618" y="122"/>
      <point x="618" y="257" type="curve" smooth="yes"/>
      <point x="618" y="266" type="line" smooth="yes"/>
      <point x="618" y="407"/>
      <point x="525" y="540"/>
      <point x="366" y="540" type="curve" smooth="yes"/>
      <point x="223" y="540"/>
      <point x="128" y="437"/>
      <point x="126" y="293" type="curve"/>
      <point x="143" y="301" type="line"/>
      <point x="143" y="524" type="line"/>
      <point x="104" y="524" type="line"/>
    </contour>
    <contour>
      <point x="360" y="27" type="curve" smooth="yes"/>
      <point x="234" y="27"/>
      <point x="150" y="121"/>
      <point x="150" y="235" type="curve" smooth="yes"/>
      <point x="150" y="287" type="line" smooth="yes"/>
      <point x="150" y="408"/>
      <point x="237" y="497"/>
      <point x="360" y="497" type="curve" smooth="yes"/>
      <point x="492" y="497"/>
      <point x="570" y="391"/>
      <point x="570" y="262" type="curve" smooth="yes"/>
      <point x="570" y="139"/>
      <point x="495" y="27"/>
    </contour>
  </outline>
</glyph>
<glyph name="q" format="2">
  <advance width="678"/>
  <unicode hex="0071"/>
  <outline>
    <contour>
      <point x="526" y="-200" type="line"/>
      <point x="574" y="-200" type="line"/>
      <point x="574" y="524" type="line"/>
      <point x="535" y="524" type="line"/>
      <point x="535" y="308" type="line"/>
      <point x="554" y="293" type="line"/>
      <point x="553" y="428"/>
      <point x="462" y="540"/>
      <point x="314" y="540" type="curve" smooth="yes"/>
      <point x="151" y="540"/>
      <point x="60" y="403"/>
      <point x="60" y="267" type="curve" smooth="yes"/>
      <point x="60" y="258" type="line" smooth="yes"/>
      <point x="60" y="117"/>
      <point x="154" y="-16"/>
      <point x="313" y="-16" type="curve" smooth="yes"/>
      <point x="455" y="-16"/>
      <point x="549" y="87"/>
      <point x="550" y="232" type="curve"/>
      <point x="526" y="160" type="line"/>
    </contour>
    <contour>
      <point x="318" y="28" type="curve" smooth="yes"/>
      <point x="187" y="28"/>
      <point x="108" y="134"/>
      <point x="108" y="263" type="curve" smooth="yes"/>
      <point x="108" y="386"/>
      <point x="183" y="498"/>
      <point x="318" y="498" type="curve" smooth="yes"/>
      <point x="444" y="498"/>
      <point x="528" y="405"/>
      <point x="528" y="290" type="curve" smooth="yes"/>
      <point x="528" y="238" type="line" smooth="yes"/>
      <point x="528" y="117"/>
      <point x="442" y="28"/>
    </contour>
  </outline>
</glyph>
<glyph name="r" format="2">
  <advance width="395"/>
  <unicode hex="0072"/>
  <note>
r / design an alternative version with a round hook. Look at lettera (based on Olivetti Candia)
</note>
  <anchor x="128" y="0" name="bottom"/>
  <anchor x="219" y="524" name="top"/>
  <outline>
    <contour>
      <point x="104" y="0" type="line"/>
      <point x="152" y="0" type="line"/>
      <point x="152" y="295" type="line" smooth="yes"/>
      <point x="152" y="419"/>
      <point x="216" y="484"/>
      <point x="341" y="484" type="curve" smooth="yes"/>
      <point x="369" y="484" type="line"/>
      <point x="369" y="528" type="line"/>
      <point x="351" y="528" type="line" smooth="yes"/>
      <point x="197" y="528"/>
      <point x="134" y="453"/>
      <point x="134" y="301" type="curve"/>
      <point x="143" y="301" type="line"/>
      <point x="143" y="524" type="line"/>
      <point x="104" y="524" type="line"/>
    </contour>
  </outline>
</glyph>
<glyph name="t" format="2">
  <advance width="416"/>
  <unicode hex="0074"/>
  <anchor x="235" y="0" name="bottom"/>
  <anchor x="182" y="290" name="center"/>
  <anchor x="139" y="696" name="top"/>
  <anchor x="167" y="576" name="topright"/>
  <outline>
    <contour>
      <point x="275" y="-5" type="curve" smooth="yes"/>
      <point x="363" y="-5" type="line"/>
      <point x="363" y="39" type="line"/>
      <point x="265" y="39" type="line" smooth="yes"/>
      <point x="200" y="39"/>
      <point x="163" y="76"/>
      <point x="163" y="141" type="curve" smooth="yes"/>
      <point x="163" y="696" type="line"/>
      <point x="116" y="696" type="line"/>
      <point x="116" y="150" type="line" smooth="yes"/>
      <point x="116" y="34"/>
      <point x="179" y="-5"/>
    </contour>
    <contour>
      <point x="16" y="485" type="line"/>
      <point x="363" y="485" type="line"/>
      <point x="363" y="524" type="line"/>
      <point x="16" y="524" type="line"/>
    </contour>
  </outline>
</glyph>
<glyph name="w" format="2">
  <advance width="800"/>
  <unicode hex="0077"/>
  <anchor x="405" y="0" name="bottom"/>
  <anchor x="398" y="524" name="top"/>
  <outline>
    <contour>
      <point x="241" y="0" type="line"/>
      <point x="284" y="0" type="line"/>
      <point x="405" y="503" type="line"/>
      <point x="391" y="503" type="line"/>
      <point x="527" y="0" type="line"/>
      <point x="572" y="0" type="line"/>
      <point x="435" y="506" type="line"/>
      <point x="361" y="506" type="line"/>
    </contour>
    <contour>
      <point x="206" y="0" type="line"/>
      <point x="273" y="0" type="line"/>
      <point x="273" y="42" type="line"/>
      <point x="206" y="42" type="line"/>
    </contour>
    <contour>
      <point x="194" y="0" type="line"/>
      <point x="240" y="0" type="line"/>
      <point x="84" y="524" type="line"/>
      <point x="37" y="524" type="line"/>
    </contour>
    <contour>
      <point x="541" y="0" type="line"/>
      <point x="603" y="0" type="line"/>
      <point x="603" y="42" type="line"/>
      <point x="541" y="42" type="line"/>
    </contour>
    <contour>
      <point x="573" y="0" type="line"/>
      <point x="617" y="0" type="line"/>
      <point x="756" y="524" type="line"/>
      <point x="710" y="524" type="line"/>
    </contour>
  </outline>
</glyph>
<glyph name="y" format="2">
  <advance width="518"/>
  <unicode hex="0079"/>
  <anchor x="253" y="524" name="top"/>
  <outline>
    <contour>
      <point x="43" y="-203" type="line"/>
      <point x="97" y="-203" type="line" smooth="yes"/>
      <point x="186" y="-203"/>
      <point x="250" y="-169"/>
      <point x="282" y="-72" type="curve" smooth="yes"/>
      <point x="479" y="524" type="line"/>
      <point x="431" y="524" type="line"/>
      <point x="242" y="-56" type="line" smooth="yes"/>
      <point x="214" y="-140"/>
      <point x="171" y="-159"/>
      <point x="100" y="-159" type="curve" smooth="yes"/>
      <point x="43" y="-159" type="line"/>
    </contour>
    <contour>
      <point x="227" y="14" type="line"/>
      <point x="295" y="14" type="line"/>
      <point x="295" y="56" type="line"/>
      <point x="227" y="56" type="line"/>
    </contour>
    <contour>
      <point x="217" y="14" type="line"/>
      <point x="264" y="14" type="line"/>
      <point x="75" y="524" type="line"/>
      <point x="26" y="524" type="line"/>
    </contour>
  </outline>
</glyph>
<glyph name="bar" format="2">
  <advance width="371"/>
  <unicode hex="007C"/>
  <outline>
    <contour>
      <point x="164" y="-200" type="line"/>
      <point x="208" y="-201" type="line"/>
      <point x="208" y="729" type="line"/>
      <point x="164" y="730" type="line"/>
    </contour>
  </outline>
</glyph>
<glyph name="cent" format="2">
  <advance width="615"/>
  <unicode hex="00A2"/>
  <outline>
    <contour>
      <point x="324" y="107" type="curve" smooth="yes"/>
      <point x="445" y="107"/>
      <point x="543" y="176"/>
      <point x="563" y="283" type="curve"/>
      <point x="516" y="283" type="line"/>
      <point x="499" y="206"/>
      <point x="426" y="150"/>
      <point x="324" y="150" type="curve" smooth="yes"/>
      <point x="187" y="150"/>
      <point x="115" y="248"/>
      <point x="115" y="368" type="curve" smooth="yes"/>
      <point x="115" y="488"/>
      <point x="187" y="582"/>
      <point x="322" y="582" type="curve" smooth="yes"/>
      <point x="424" y="582"/>
      <point x="489" y="529"/>
      <point x="507" y="458" type="curve"/>
      <point x="554" y="458" type="line"/>
      <point x="530" y="562"/>
      <point x="442" y="625"/>
      <point x="322" y="625" type="curve" smooth="yes"/>
      <point x="156" y="625"/>
      <point x="67" y="504"/>
      <point x="67" y="375" type="curve" smooth="yes"/>
      <point x="67" y="361" type="line" smooth="yes"/>
      <point x="67" y="232"/>
      <point x="156" y="107"/>
    </contour>
    <contour>
      <point x="302" y="0" type="line"/>
      <point x="346" y="0" type="line"/>
      <point x="346" y="125" type="line"/>
      <point x="302" y="125" type="line"/>
    </contour>
    <contour>
      <point x="302" y="605" type="line"/>
      <point x="346" y="605" type="line"/>
      <point x="346" y="730" type="line"/>
      <point x="302" y="730" type="line"/>
    </contour>
  </outline>
</glyph>
<glyph name="sterling" format="2">
  <advance width="612"/>
  <unicode hex="00A3"/>
  <outline>
    <contour>
      <point x="136" y="0" type="line"/>
      <point x="182" y="0" type="line"/>
      <point x="182" y="491" type="line" smooth="yes"/>
      <point x="182" y="647"/>
      <point x="256" y="694"/>
      <point x="367" y="694" type="curve" smooth="yes"/>
      <point x="416" y="694"/>
      <point x="481" y="687"/>
      <point x="524" y="680" type="curve"/>
      <point x="524" y="723" type="line"/>
      <point x="482" y="730"/>
      <point x="418" y="737"/>
      <point x="371" y="737" type="curve" smooth="yes"/>
      <point x="217" y="737"/>
      <point x="136" y="658"/>
      <point x="136" y="493" type="curve" smooth="yes"/>
    </contour>
    <contour>
      <point x="47" y="0" type="line"/>
      <point x="561" y="0" type="line"/>
      <point x="561" y="40" type="line"/>
      <point x="47" y="40" type="line"/>
    </contour>
    <contour>
      <point x="53" y="328" type="line"/>
      <point x="440" y="328" type="line"/>
      <point x="440" y="366" type="line"/>
      <point x="53" y="366" type="line"/>
    </contour>
    <contour>
      <point x="528" y="0" type="line"/>
      <point x="572" y="0" type="line"/>
      <point x="572" y="155" type="line"/>
      <point x="528" y="155" type="line"/>
    </contour>
  </outline>
</glyph>
<glyph name="yen" format="2">
  <advance width="585"/>
  <unicode hex="00A5"/>
  <outline>
    <contour>
      <point x="256" y="316" type="line"/>
      <point x="342" y="316" type="line"/>
      <point x="561" y="730" type="line"/>
      <point x="512" y="730" type="line"/>
      <point x="308" y="341" type="line"/>
      <point x="335" y="349" type="line"/>
      <point x="266" y="349" type="line"/>
      <point x="291" y="341" type="line"/>
      <point x="77" y="730" type="line"/>
      <point x="26" y="730" type="line"/>
    </contour>
    <contour>
      <point x="276" y="0" type="line"/>
      <point x="321" y="0" type="line"/>
      <point x="321" y="327" type="line"/>
      <point x="276" y="327" type="line"/>
    </contour>
    <contour>
      <point x="58" y="170" type="line"/>
      <point x="538" y="170" type="line"/>
      <point x="538" y="207" type="line"/>
      <point x="58" y="207" type="line"/>
    </contour>
    <contour>
      <point x="58" y="311" type="line"/>
      <point x="538" y="311" type="line"/>
      <point x="538" y="349" type="line"/>
      <point x="58" y="349" type="line"/>
    </contour>
  </outline>
</glyph>
<glyph name="brokenbar" format="2">
  <advance width="371"/>
  <unicode hex="00A6"/>
  <outline>
    <contour>
      <point x="164" y="367" type="line"/>
      <point x="208" y="367" type="line"/>
      <point x="208" y="730" type="line"/>
      <point x="164" y="730" type="line"/>
    </contour>
    <contour>
      <point x="164" y="-200" type="line"/>
      <point x="208" y="-200" type="line"/>
      <point x="208" y="147" type="line"/>
      <point x="164" y="147" type="line"/>
    </contour>
  </outline>
</glyph>
<glyph name="registered" format="2">
  <advance width="678"/>
  <unicode hex="00AE"/>
  <outline>
    <contour>
      <point x="339" y="184" type="curve" smooth="yes"/>
      <point x="521" y="184"/>
      <point x="624" y="318"/>
      <point x="624" y="461" type="curve" smooth="yes"/>
      <point x="624" y="472" type="line" smooth="yes"/>
      <point x="624" y="615"/>
      <point x="520" y="749"/>
      <point x="339" y="749" type="curve" smooth="yes"/>
      <point x="158" y="749"/>
      <point x="54" y="615"/>
      <point x="54" y="472" type="curve" smooth="yes"/>
      <point x="54" y="461" type="line" smooth="yes"/>
      <point x="54" y="318"/>
      <point x="157" y="184"/>
    </contour>
    <contour>
      <point x="339" y="218" type="curve" smooth="yes"/>
      <point x="179" y="218"/>
      <point x="91" y="334"/>
      <point x="91" y="466" type="curve" smooth="yes"/>
      <point x="91" y="599"/>
      <point x="179" y="715"/>
      <point x="339" y="715" type="curve" smooth="yes"/>
      <point x="500" y="715"/>
      <point x="588" y="599"/>
      <point x="588" y="466" type="curve" smooth="yes"/>
      <point x="588" y="334"/>
      <point x="500" y="218"/>
    </contour>
    <contour>
      <point x="242" y="320" type="line"/>
      <point x="279" y="320" type="line"/>
      <point x="279" y="622" type="line"/>
      <point x="242" y="622" type="line"/>
    </contour>
    <contour>
      <point x="426" y="320" type="line"/>
      <point x="469" y="320" type="line"/>
      <point x="364" y="448" type="line"/>
      <point x="321" y="448" type="line"/>
    </contour>
    <contour>
      <point x="260" y="434" type="line"/>
      <point x="341" y="434" type="line" smooth="yes"/>
      <point x="409" y="434"/>
      <point x="449" y="470"/>
      <point x="449" y="528" type="curve" smooth="yes"/>
      <point x="449" y="588"/>
      <point x="409" y="622"/>
      <point x="341" y="622" type="curve" smooth="yes"/>
      <point x="260" y="622" type="line"/>
      <point x="260" y="589" type="line"/>
      <point x="343" y="589" type="line" smooth="yes"/>
      <point x="392" y="589"/>
      <point x="412" y="570"/>
      <point x="412" y="528" type="curve" smooth="yes"/>
      <point x="412" y="488"/>
      <point x="392" y="468"/>
      <point x="343" y="468" type="curve" smooth="yes"/>
      <point x="260" y="468" type="line"/>
    </contour>
  </outline>
</glyph>
<glyph name="ae" format="2">
  <advance width="954"/>
  <unicode hex="00E6"/>
  <outline>
    <contour>
      <point x="668" y="-16" type="curve" smooth="yes"/>
      <point x="793" y="-16"/>
      <point x="875" y="51"/>
      <point x="896" y="149" type="curve"/>
      <point x="850" y="149" type="line"/>
      <point x="835" y="82"/>
      <point x="770" y="28"/>
      <point x="668" y="28" type="curve" smooth="yes"/>
      <point x="525" y="28"/>
      <point x="458" y="136"/>
      <point x="458" y="264" type="curve" smooth="yes"/>
      <point x="458" y="390"/>
      <point x="528" y="496"/>
      <point x="662" y="496" type="curve" smooth="yes"/>
      <point x="787" y="496"/>
      <point x="859" y="404"/>
      <point x="859" y="281" type="curve"/>
      <point x="874" y="299" type="line"/>
      <point x="446" y="299" type="line"/>
      <point x="446" y="258" type="line"/>
      <point x="904" y="258" type="line"/>
      <point x="904" y="293" type="line" smooth="yes"/>
      <point x="904" y="419"/>
      <point x="818" y="540"/>
      <point x="662" y="540" type="curve" smooth="yes"/>
      <point x="526" y="540"/>
      <point x="450" y="451"/>
      <point x="427" y="343" type="curve"/>
      <point x="456" y="343" type="line"/>
      <point x="456" y="468"/>
      <point x="407" y="529"/>
      <point x="249" y="529" type="curve" smooth="yes"/>
      <point x="208" y="529"/>
      <point x="160" y="525"/>
      <point x="120" y="520" type="curve"/>
      <point x="120" y="476" type="line"/>
      <point x="160" y="482"/>
      <point x="214" y="485"/>
      <point x="272" y="485" type="curve" smooth="yes"/>
      <point x="374" y="485"/>
      <point x="413" y="435"/>
      <point x="413" y="350" type="curve" smooth="yes"/>
      <point x="413" y="191" type="line" smooth="yes"/>
      <point x="409" y="66"/>
      <point x="325" y="26"/>
      <point x="246" y="26" type="curve" smooth="yes"/>
      <point x="161" y="26"/>
      <point x="104" y="73"/>
      <point x="104" y="150" type="curve" smooth="yes"/>
      <point x="104" y="222"/>
      <point x="153" y="269"/>
      <point x="246" y="269" type="curve" smooth="yes"/>
      <point x="417" y="269" type="line"/>
      <point x="417" y="308" type="line"/>
      <point x="251" y="308" type="line" smooth="yes"/>
      <point x="127" y="308"/>
      <point x="57" y="249"/>
      <point x="57" y="150" type="curve" smooth="yes"/>
      <point x="57" y="45"/>
      <point x="135" y="-14"/>
      <point x="239" y="-14" type="curve" smooth="yes"/>
      <point x="345" y="-14"/>
      <point x="437" y="44"/>
      <point x="442" y="177" type="curve"/>
      <point x="426" y="177" type="line"/>
      <point x="449" y="87"/>
      <point x="515" y="-16"/>
    </contour>
  </outline>
</glyph>
<glyph name="oslash" format="2">
  <advance width="660"/>
  <unicode hex="00F8"/>
  <anchor x="330" y="0" name="bottom"/>
  <anchor x="330" y="262" name="center"/>
  <anchor x="443" y="9" name="ogonek"/>
  <anchor x="330" y="524" name="top"/>
  <outline>
    <contour>
      <point x="94" y="-40" type="line"/>
      <point x="140" y="-40" type="line"/>
      <point x="573" y="576" type="line"/>
      <point x="527" y="576" type="line"/>
    </contour>
    <component base="o"/>
  </outline>
</glyph>
<glyph name="idotless" format="2">
  <advance width="287"/>
  <unicode hex="0131"/>
  <anchor x="157" y="0" name="bottom"/>
  <anchor x="181" y="10" name="ogonek"/>
  <anchor x="118" y="524" name="top"/>
  <outline>
    <contour>
      <point x="133" y="0" type="line"/>
      <point x="181" y="0" type="line"/>
      <point x="181" y="524" type="line"/>
      <point x="133" y="524" type="line"/>
    </contour>
    <contour>
      <point x="45" y="482" type="line"/>
      <point x="181" y="482" type="line"/>
      <point x="181" y="524" type="line"/>
      <point x="45" y="524" type="line"/>
    </contour>
  </outline>
</glyph>
<glyph name="lslash" format="2">
  <advance width="259"/>
  <unicode hex="0142"/>
  <anchor x="131" y="0" name="bottom"/>
  <anchor x="131" y="480" name="center"/>
  <anchor x="96" y="730" name="top"/>
  <anchor x="157" y="534" name="topright"/>
  <outline>
    <contour>
      <point x="33" y="253" type="line"/>
      <point x="117" y="303" type="line"/>
      <point x="117" y="344" type="line"/>
      <point x="33" y="295" type="line"/>
    </contour>
    <contour>
      <point x="146" y="319" type="line"/>
      <point x="227" y="367" type="line"/>
      <point x="227" y="408" type="line"/>
      <point x="146" y="360" type="line"/>
    </contour>
    <component base="l"/>
  </outline>
</glyph>
<glyph name="eng" format="2">
  <advance width="630"/>
  <unicode hex="014B"/>
  <anchor x="318" y="0" name="bottom"/>
  <anchor x="323" y="524" name="top"/>
  <outline>
    <contour>
      <point x="320" y="-201" type="line"/>
      <point x="388" y="-201" type="line" smooth="yes"/>
      <point x="489" y="-201"/>
      <point x="532" y="-156"/>
      <point x="532" y="-46" type="curve" smooth="yes"/>
      <point x="532" y="20" type="line"/>
      <point x="484" y="20" type="line"/>
      <point x="484" y="-60" type="line" smooth="yes"/>
      <point x="484" y="-124"/>
      <point x="455" y="-157"/>
      <point x="401" y="-157" type="curve" smooth="yes"/>
      <point x="320" y="-157" type="line"/>
    </contour>
    <component base="n"/>
  </outline>
</glyph>
<glyph name="OE" format="2">
  <advance width="1065"/>
  <unicode hex="0152"/>
  <outline>
    <contour>
      <point x="448" y="-17" type="curve" smooth="yes"/>
      <point x="499" y="-17"/>
      <point x="551" y="-10"/>
      <point x="591" y="0" type="curve"/>
      <point x="632" y="0" type="line"/>
      <point x="632" y="730" type="line"/>
      <point x="595" y="730" type="line"/>
      <point x="558" y="741"/>
      <point x="500" y="749"/>
      <point x="448" y="749" type="curve" smooth="yes"/>
      <point x="200" y="749"/>
      <point x="67" y="570"/>
      <point x="67" y="374" type="curve" smooth="yes"/>
      <point x="67" y="360" type="line" smooth="yes"/>
      <point x="67" y="171"/>
      <point x="189" y="-17"/>
    </contour>
    <contour>
      <point x="448" y="28" type="curve" smooth="yes"/>
      <point x="229" y="28"/>
      <point x="116" y="184"/>
      <point x="116" y="366" type="curve" smooth="yes"/>
      <point x="116" y="554"/>
      <point x="237" y="704"/>
      <point x="448" y="704" type="curve" smooth="yes"/>
      <point x="500" y="704"/>
      <point x="558" y="696"/>
      <point x="599" y="683" type="curve"/>
      <point x="583" y="699" type="line"/>
      <point x="583" y="27" type="line"/>
      <point x="596" y="48" type="line"/>
      <point x="555" y="35"/>
      <point x="499" y="28"/>
    </contour>
    <contour>
      <point x="618" y="0" type="line"/>
      <point x="994" y="0" type="line"/>
      <point x="994" y="45" type="line"/>
      <point x="618" y="45" type="line"/>
    </contour>
    <contour>
      <point x="616" y="349" type="line"/>
      <point x="958" y="349" type="line"/>
      <point x="958" y="393" type="line"/>
      <point x="616" y="393" type="line"/>
    </contour>
    <contour>
      <point x="619" y="686" type="line"/>
      <point x="982" y="686" type="line"/>
      <point x="982" y="730" type="line"/>
      <point x="619" y="730" type="line"/>
    </contour>
  </outline>
</glyph>
<glyph name="jdotless" format="2">
  <advance width="295"/>
  <unicode hex="0237"/>
  <anchor x="160" y="-300" name="bottom"/>
  <anchor x="127" y="524" name="top"/>
  <outline>
    <contour>
      <point x="-5" y="-202" type="line"/>
      <point x="48" y="-202" type="line" smooth="yes"/>
      <point x="150" y="-202"/>
      <point x="190" y="-160"/>
      <point x="190" y="-48" type="curve" smooth="yes"/>
      <point x="190" y="524" type="line"/>
      <point x="143" y="524" type="line"/>
      <point x="143" y="-62" type="line" smooth="yes"/>
      <point x="143" y="-126"/>
      <point x="115" y="-158"/>
      <point x="61" y="-158" type="curve" smooth="yes"/>
      <point x="-5" y="-158" type="line"/>
    </contour>
    <contour>
      <point x="53" y="482" type="line"/>
      <point x="190" y="482" type="line"/>
      <point x="190" y="524" type="line"/>
      <point x="53" y="524" type="line"/>
    </contour>
  </outline>
</glyph>
<glyph name="gravecomb" format="2">
  <unicode hex="0300"/>
  <anchor x="114" y="524" name="_top"/>
  <anchor x="27" y="800" name="top"/>
  <outline>
    <contour>
      <point x="100" y="612" type="line"/>
      <point x="144" y="612" type="line"/>
      <point x="52" y="800" type="line"/>
      <point x="0" y="800" type="line"/>
    </contour>
  </outline>
</glyph>
<glyph name="brevecomb" format="2">
  <unicode hex="0306"/>
  <anchor x="135" y="524" name="_top"/>
  <anchor x="135" y="799" name="top"/>
  <outline>
    <contour>
      <point x="135" y="608" type="curve" smooth="yes"/>
      <point x="223" y="608"/>
      <point x="266" y="676"/>
      <point x="270" y="800" type="curve"/>
      <point x="232" y="800" type="line"/>
      <point x="226" y="699"/>
      <point x="201" y="643"/>
      <point x="135" y="643" type="curve" smooth="yes"/>
      <point x="71" y="643"/>
      <point x="45" y="699"/>
      <point x="39" y="800" type="curve"/>
      <point x="0" y="800" type="line"/>
      <point x="4" y="676"/>
      <point x="47" y="608"/>
    </contour>
  </outline>
</glyph>
<glyph name="dotaccentcomb" format="2">
  <unicode hex="0307"/>
  <anchor x="43" y="524" name="_top"/>
  <anchor x="43" y="803" name="top"/>
  <outline>
    <contour>
      <point x="43" y="652" type="curve" smooth="yes"/>
      <point x="71" y="652"/>
      <point x="85" y="668"/>
      <point x="85" y="692" type="curve" smooth="yes"/>
      <point x="85" y="715"/>
      <point x="71" y="732"/>
      <point x="43" y="732" type="curve" smooth="yes"/>
      <point x="14" y="732"/>
      <point x="0" y="715"/>
      <point x="0" y="692" type="curve" smooth="yes"/>
      <point x="0" y="668"/>
      <point x="14" y="652"/>
    </contour>
  </outline>
</glyph>
<glyph name="ringcomb" format="2">
  <unicode hex="030A"/>
  <anchor x="106" y="524" name="_top"/>
  <anchor x="106" y="800" name="top"/>
  <outline>
    <contour>
      <point x="106" y="602" type="curve" smooth="yes"/>
      <point x="170" y="602"/>
      <point x="212" y="649"/>
      <point x="212" y="707" type="curve" smooth="yes"/>
      <point x="212" y="765"/>
      <point x="170" y="811"/>
      <point x="106" y="811" type="curve" smooth="yes"/>
      <point x="43" y="811"/>
      <point x="0" y="765"/>
      <point x="0" y="707" type="curve" smooth="yes"/>
      <point x="0" y="649"/>
      <point x="43" y="602"/>
    </contour>
    <contour>
      <point x="106" y="635" type="curve" smooth="yes"/>
      <point x="62" y="635"/>
      <point x="35" y="665"/>
      <point x="35" y="707" type="curve" smooth="yes"/>
      <point x="35" y="748"/>
      <point x="62" y="779"/>
      <point x="106" y="779" type="curve" smooth="yes"/>
      <point x="151" y="779"/>
      <point x="178" y="748"/>
      <point x="178" y="707" type="curve" smooth="yes"/>
      <point x="178" y="665"/>
      <point x="151" y="635"/>
    </contour>
  </outline>
</glyph>
<glyph name="caroncomb" format="2">
  <unicode hex="030C"/>
  <anchor x="136" y="524" name="_top"/>
  <anchor x="134" y="800" name="top"/>
  <outline>
    <contour>
      <point x="106" y="612" type="line"/>
      <point x="168" y="612" type="line"/>
      <point x="267" y="800" type="line"/>
      <point x="225" y="800" type="line"/>
      <point x="141" y="641" type="line"/>
      <point x="133" y="641" type="line"/>
      <point x="44" y="800" type="line"/>
      <point x="0" y="800" type="line"/>
    </contour>
  </outline>
</glyph>
<glyph name="ogonekcomb" format="2">
  <unicode hex="0328"/>
  <anchor x="207" y="10" name="_ogonek"/>
  <outline>
    <contour>
      <point x="172" y="-239" type="curve" smooth="yes"/>
      <point x="191" y="-239"/>
      <point x="205" y="-236"/>
      <point x="220" y="-230" type="curve"/>
      <point x="220" y="-192" type="line"/>
      <point x="203" y="-198"/>
      <point x="188" y="-201"/>
      <point x="173" y="-201" type="curve" smooth="yes"/>
      <point x="138" y="-201"/>
      <point x="113" y="-182"/>
      <point x="113" y="-140" type="curve" smooth="yes"/>
      <point x="113" y="-97"/>
      <point x="137" y="-58"/>
      <point x="182" y="-20" type="curve" smooth="yes"/>
      <point x="207" y="0" type="line"/>
      <point x="188" y="25" type="line"/>
      <point x="163" y="5" type="line" smooth="yes"/>
      <point x="110" y="-37"/>
      <point x="75" y="-84"/>
      <point x="75" y="-142" type="curve" smooth="yes"/>
      <point x="75" y="-205"/>
      <point x="116" y="-239"/>
    </contour>
  </outline>
</glyph>
<glyph name="strokelongcomb" format="2">
  <unicode hex="0336"/>
  <anchor x="150" y="359" name="_center"/>
  <outline>
    <contour>
      <point x="-26" y="338" type="line"/>
      <point x="326" y="338" type="line"/>
      <point x="326" y="381" type="line"/>
      <point x="-26" y="381" type="line"/>
    </contour>
  </outline>
</glyph>
<glyph name="Germandbls" format="2">
  <advance width="1358"/>
  <unicode hex="1E9E"/>
  <outline>
    <contour>
      <point x="350" y="-16" type="curve" smooth="yes"/>
      <point x="525" y="-16"/>
      <point x="618" y="73"/>
      <point x="618" y="194" type="curve" smooth="yes"/>
      <point x="618" y="301"/>
      <point x="541" y="382"/>
      <point x="395" y="395" type="curve" smooth="yes"/>
      <point x="310" y="403" type="line" smooth="yes"/>
      <point x="213" y="411"/>
      <point x="160" y="462"/>
      <point x="160" y="544" type="curve" smooth="yes"/>
      <point x="160" y="631"/>
      <point x="213" y="703"/>
      <point x="346" y="703" type="curve" smooth="yes"/>
      <point x="484" y="703"/>
      <point x="541" y="621"/>
      <point x="541" y="530" type="curve"/>
      <point x="589" y="530" type="line"/>
      <point x="589" y="652"/>
      <point x="509" y="748"/>
      <point x="346" y="748" type="curve" smooth="yes"/>
      <point x="189" y="748"/>
      <point x="112" y="658"/>
      <point x="112" y="544" type="curve" smooth="yes"/>
      <point x="112" y="435"/>
      <point x="185" y="369"/>
      <point x="305" y="358" type="curve" smooth="yes"/>
      <point x="390" y="350" type="line" smooth="yes"/>
      <point x="512" y="339"/>
      <point x="569" y="275"/>
      <point x="569" y="194" type="curve" smooth="yes"/>
      <point x="569" y="96"/>
      <point x="495" y="29"/>
      <point x="350" y="29" type="curve" smooth="yes"/>
      <point x="191" y="29"/>
      <point x="124" y="107"/>
      <point x="124" y="210" type="curve"/>
      <point x="76" y="210" type="line"/>
      <point x="76" y="77"/>
      <point x="165" y="-16"/>
    </contour>
    <contour>
      <point x="1010" y="-16" type="curve" smooth="yes"/>
      <point x="1186" y="-16"/>
      <point x="1277" y="73"/>
      <point x="1277" y="194" type="curve" smooth="yes"/>
      <point x="1277" y="301"/>
      <point x="1200" y="382"/>
      <point x="1055" y="395" type="curve" smooth="yes"/>
      <point x="969" y="403" type="line" smooth="yes"/>
      <point x="871" y="411"/>
      <point x="819" y="462"/>
      <point x="819" y="544" type="curve" smooth="yes"/>
      <point x="819" y="631"/>
      <point x="872" y="703"/>
      <point x="1006" y="703" type="curve" smooth="yes"/>
      <point x="1143" y="703"/>
      <point x="1200" y="621"/>
      <point x="1200" y="530" type="curve"/>
      <point x="1249" y="530" type="line"/>
      <point x="1249" y="652"/>
      <point x="1168" y="748"/>
      <point x="1006" y="748" type="curve" smooth="yes"/>
      <point x="848" y="748"/>
      <point x="770" y="658"/>
      <point x="770" y="544" type="curve" smooth="yes"/>
      <point x="770" y="436"/>
      <point x="843" y="369"/>
      <point x="963" y="358" type="curve" smooth="yes"/>
      <point x="1049" y="350" type="line" smooth="yes"/>
      <point x="1171" y="339"/>
      <point x="1229" y="275"/>
      <point x="1229" y="194" type="curve" smooth="yes"/>
      <point x="1229" y="96"/>
      <point x="1156" y="29"/>
      <point x="1010" y="29" type="curve" smooth="yes"/>
      <point x="852" y="29"/>
      <point x="786" y="107"/>
      <point x="786" y="210" type="curve"/>
      <point x="738" y="210" type="line"/>
      <point x="738" y="77"/>
      <point x="826" y="-16"/>
    </contour>
  </outline>
</glyph>
<glyph name="emdash" format="2">
  <advance width="887"/>
  <unicode hex="2014"/>
  <outline>
    <contour>
      <point x="18" y="257" type="line"/>
      <point x="869" y="257" type="line"/>
      <point x="869" y="299" type="line"/>
      <point x="18" y="299" type="line"/>
    </contour>
  </outline>
</glyph>
<glyph name="bullet" format="2">
  <advance width="431"/>
  <unicode hex="2022"/>
  <outline>
    <contour>
      <point x="108" y="175" type="line"/>
      <point x="323" y="175" type="line"/>
      <point x="323" y="400" type="line"/>
      <point x="108" y="400" type="line"/>
    </contour>
  </outline>
</glyph>
<glyph name="minute" format="2">
  <advance width="259"/>
  <unicode hex="2032"/>
  <outline>
    <contour>
      <point x="84" y="478" type="line"/>
      <point x="127" y="478" type="line"/>
      <point x="175" y="730" type="line"/>
      <point x="132" y="730" type="line"/>
    </contour>
  </outline>
</glyph>
<glyph name="guilsinglleft" format="2">
  <advance width="289"/>
  <unicode hex="2039"/>
  <outline>
    <contour>
      <point x="184" y="39" type="line"/>
      <point x="232" y="39" type="line"/>
      <point x="101" y="252" type="line"/>
      <point x="101" y="269" type="line"/>
      <point x="230" y="483" type="line"/>
      <point x="184" y="483" type="line"/>
      <point x="58" y="275" type="line"/>
      <point x="58" y="242" type="line"/>
    </contour>
  </outline>
</glyph>
<glyph name="minus" format="2">
  <advance width="586"/>
  <unicode hex="2212"/>
  <outline>
    <contour>
      <point x="81" y="325" type="line"/>
      <point x="505" y="325" type="line"/>
      <point x="505" y="365" type="line"/>
      <point x="81" y="365" type="line"/>
    </contour>
  </outline>
</glyph>
<glyph name="lessequal" format="2">
  <advance width="583"/>
  <unicode hex="2264"/>
  <outline>
    <contour>
      <point x="81" y="51" type="line"/>
      <point x="502" y="51" type="line"/>
      <point x="502" y="91" type="line"/>
      <point x="81" y="91" type="line"/>
    </contour>
    <contour>
      <point x="501" y="180" type="line"/>
      <point x="501" y="221" type="line"/>
      <point x="82" y="358" type="line"/>
      <point x="82" y="319" type="line"/>
    </contour>
    <contour>
      <point x="82" y="353" type="line"/>
      <point x="501" y="489" type="line"/>
      <point x="501" y="532" type="line"/>
      <point x="82" y="393" type="line"/>
    </contour>
    <contour>
      <point x="92" y="335" type="line"/>
      <point x="116" y="335" type="line"/>
      <point x="116" y="376" type="line"/>
      <point x="92" y="376" type="line"/>
    </contour>
  </outline>
</glyph>
<glyph name="fl" format="2">
  <advance width="628"/>
  <unicode hex="FB02"/>
  <outline>
    <contour>
      <point x="120" y="0" type="line"/>
      <point x="167" y="0" type="line"/>
      <point x="167" y="593" type="line" smooth="yes"/>
      <point x="167" y="653"/>
      <point x="200" y="688"/>
      <point x="264" y="688" type="curve" smooth="yes"/>
      <point x="335" y="688" type="line"/>
      <point x="335" y="730" type="line"/>
      <point x="275" y="730" type="line" smooth="yes"/>
      <point x="170" y="730"/>
      <point x="120" y="682"/>
      <point x="120" y="580" type="curve" smooth="yes"/>
    </contour>
    <contour>
      <point x="38" y="482" type="line"/>
      <point x="341" y="482" type="line"/>
      <point x="341" y="521" type="line"/>
      <point x="38" y="521" type="line"/>
    </contour>
    <contour>
      <point x="476" y="0" type="line"/>
      <point x="524" y="0" type="line"/>
      <point x="524" y="730" type="line"/>
      <point x="476" y="730" type="line"/>
    </contour>
    <contour>
      <point x="401" y="689" type="line"/>
      <point x="524" y="689" type="line"/>
      <point x="524" y="730" type="line"/>
      <point x="401" y="730" type="line"/>
    </contour>
  </outline>
</glyph>
<glyph name="I.salt" format="2">
  <advance width="445"/>
  <anchor x="223" y="0" name="bottom"/>
  <anchor x="261" y="10" name="ogonek"/>
  <anchor x="223" y="730" name="top"/>
  <outline>
    <contour>
      <point x="198" y="24" type="line"/>
      <point x="247" y="24" type="line"/>
      <point x="247" y="707" type="line"/>
      <point x="198" y="707" type="line"/>
    </contour>
    <contour>
      <point x="108" y="0" type="line"/>
      <point x="338" y="0" type="line"/>
      <point x="338" y="44" type="line"/>
      <point x="108" y="44" type="line"/>
    </contour>
    <contour>
      <point x="108" y="687" type="line"/>
      <point x="338" y="687" type="line"/>
      <point x="338" y="730" type="line"/>
      <point x="108" y="730" type="line"/>
    </contour>
  </outline>
</glyph>
<glyph name="P.salt" format="2">
  <advance width="620"/>
  <outline>
    <contour>
      <point x="154" y="351" type="line"/>
      <point x="387" y="351" type="line" smooth="yes"/>
      <point x="532" y="351"/>
      <point x="596" y="429"/>
      <point x="596" y="536" type="curve" smooth="yes"/>
      <point x="596" y="547" type="line" smooth="yes"/>
      <point x="596" y="655"/>
      <point x="532" y="733"/>
      <point x="387" y="733" type="curve" smooth="yes"/>
      <point x="154" y="733" type="line"/>
      <point x="154" y="689" type="line"/>
      <point x="393" y="689" type="line" smooth="yes"/>
      <point x="504" y="689"/>
      <point x="547" y="626"/>
      <point x="547" y="542" type="curve" smooth="yes"/>
      <point x="547" y="457"/>
      <point x="505" y="395"/>
      <point x="393" y="395" type="curve" smooth="yes"/>
      <point x="154" y="395" type="line"/>
    </contour>
    <contour>
      <point x="124" y="0" type="line"/>
      <point x="173" y="0" type="line"/>
      <point x="173" y="733" type="line"/>
      <point x="124" y="733" type="line"/>
    </contour>
  </outline>
</glyph>
<glyph name="R.salt" format="2">
  <advance width="690"/>
  <anchor x="374" y="0" name="bottom"/>
  <anchor x="335" y="730" name="top"/>
  <outline>
    <contour>
      <point x="124" y="0" type="line"/>
      <point x="173" y="0" type="line"/>
      <point x="173" y="733" type="line"/>
      <point x="124" y="733" type="line"/>
    </contour>
    <contour>
      <point x="577" y="0" type="line"/>
      <point x="631" y="0" type="line"/>
      <point x="440" y="360" type="line"/>
      <point x="387" y="360" type="line"/>
    </contour>
    <contour>
      <point x="154" y="347" type="line"/>
      <point x="393" y="347" type="line" smooth="yes"/>
      <point x="537" y="347"/>
      <point x="602" y="422"/>
      <point x="602" y="534" type="curve" smooth="yes"/>
      <point x="602" y="546" type="line" smooth="yes"/>
      <point x="602" y="657"/>
      <point x="536" y="733"/>
      <point x="393" y="733" type="curve" smooth="yes"/>
      <point x="154" y="733" type="line"/>
      <point x="154" y="689" type="line"/>
      <point x="399" y="689" type="line" smooth="yes"/>
      <point x="510" y="689"/>
      <point x="553" y="627"/>
      <point x="553" y="540" type="curve" smooth="yes"/>
      <point x="553" y="453"/>
      <point x="511" y="391"/>
      <point x="399" y="391" type="curve" smooth="yes"/>
      <point x="154" y="391" type="line"/>
    </contour>
  </outline>
</glyph>
<glyph name="acutecomb.case" format="2">
  <anchor x="33" y="730" name="_top"/>
  <anchor x="141" y="943" name="top"/>
  <outline>
    <contour>
      <point x="0" y="799" type="line"/>
      <point x="48" y="799" type="line"/>
      <point x="172" y="943" type="line"/>
      <point x="116" y="943" type="line"/>
    </contour>
  </outline>
</glyph>
<glyph name="braceleft.case" format="2">
  <advance width="361"/>
  <outline>
    <contour>
      <point x="290" y="-118" type="curve" smooth="yes"/>
      <point x="306" y="-118" type="line"/>
      <point x="306" y="-78" type="line"/>
      <point x="290" y="-78" type="line" smooth="yes"/>
      <point x="217" y="-78"/>
      <point x="178" y="-40"/>
      <point x="178" y="53" type="curve" smooth="yes"/>
      <point x="178" y="231" type="line" smooth="yes"/>
      <point x="178" y="295"/>
      <point x="149" y="331"/>
      <point x="101" y="341" type="curve"/>
      <point x="101" y="349" type="line"/>
      <point x="149" y="358"/>
      <point x="178" y="394"/>
      <point x="178" y="458" type="curve" smooth="yes"/>
      <point x="178" y="635" type="line" smooth="yes"/>
      <point x="178" y="728"/>
      <point x="217" y="766"/>
      <point x="290" y="766" type="curve" smooth="yes"/>
      <point x="306" y="766" type="line"/>
      <point x="306" y="806" type="line"/>
      <point x="290" y="806" type="line" smooth="yes"/>
      <point x="194" y="806"/>
      <point x="131" y="753"/>
      <point x="131" y="631" type="curve" smooth="yes"/>
      <point x="131" y="447" type="line" smooth="yes"/>
      <point x="131" y="397"/>
      <point x="101" y="375"/>
      <point x="68" y="375" type="curve"/>
      <point x="68" y="314" type="line"/>
      <point x="101" y="314"/>
      <point x="131" y="292"/>
      <point x="131" y="242" type="curve" smooth="yes"/>
      <point x="131" y="58" type="line" smooth="yes"/>
      <point x="131" y="-65"/>
      <point x="194" y="-118"/>
    </contour>
  </outline>
</glyph>
<glyph name="bracketleft.case" format="2">
  <advance width="361"/>
  <outline>
    <contour>
      <point x="130" y="-118" type="line"/>
      <point x="177" y="-118" type="line"/>
      <point x="177" y="806" type="line"/>
      <point x="130" y="806" type="line"/>
    </contour>
    <contour>
      <point x="141" y="-118" type="line"/>
      <point x="295" y="-118" type="line"/>
      <point x="295" y="-78" type="line"/>
      <point x="141" y="-78" type="line"/>
    </contour>
    <contour>
      <point x="141" y="766" type="line"/>
      <point x="295" y="766" type="line"/>
      <point x="295" y="806" type="line"/>
      <point x="141" y="806" type="line"/>
    </contour>
  </outline>
</glyph>
<glyph name="brevecomb.case" format="2">
  <anchor x="147" y="730" name="_top"/>
  <anchor x="147" y="943" name="top"/>
  <outline>
    <contour>
      <point x="147" y="791" type="curve" smooth="yes"/>
      <point x="248" y="791"/>
      <point x="289" y="857"/>
      <point x="295" y="943" type="curve"/>
      <point x="258" y="943" type="line"/>
      <point x="253" y="876"/>
      <point x="223" y="827"/>
      <point x="147" y="827" type="curve" smooth="yes"/>
      <point x="72" y="827"/>
      <point x="43" y="876"/>
      <point x="38" y="943" type="curve"/>
      <point x="0" y="943" type="line"/>
      <point x="6" y="857"/>
      <point x="47" y="791"/>
    </contour>
  </outline>
</glyph>
<glyph name="caroncomb.alt" format="2">
  <anchor x="0" y="524" name="_topright"/>
  <outline>
    <contour>
      <point x="89" y="577" type="line"/>
      <point x="128" y="577" type="line"/>
      <point x="133" y="803" type="line"/>
      <point x="89" y="803" type="line"/>
    </contour>
  </outline>
</glyph>
<glyph name="cent.tnum" format="2">
  <advance width="632"/>
  <outline>
    <contour>
      <point x="328" y="107" type="curve" smooth="yes"/>
      <point x="448" y="107"/>
      <point x="546" y="176"/>
      <point x="566" y="283" type="curve"/>
      <point x="519" y="283" type="line"/>
      <point x="502" y="206"/>
      <point x="429" y="150"/>
      <point x="328" y="150" type="curve" smooth="yes"/>
      <point x="193" y="150"/>
      <point x="121" y="248"/>
      <point x="121" y="368" type="curve" smooth="yes"/>
      <point x="121" y="488"/>
      <point x="193" y="582"/>
      <point x="327" y="582" type="curve" smooth="yes"/>
      <point x="427" y="582"/>
      <point x="492" y="529"/>
      <point x="510" y="458" type="curve"/>
      <point x="557" y="458" type="line"/>
      <point x="533" y="562"/>
      <point x="445" y="625"/>
      <point x="327" y="625" type="curve" smooth="yes"/>
      <point x="162" y="625"/>
      <point x="73" y="504"/>
      <point x="73" y="375" type="curve" smooth="yes"/>
      <point x="73" y="361" type="line" smooth="yes"/>
      <point x="73" y="232"/>
      <point x="162" y="107"/>
    </contour>
    <contour>
      <point x="306" y="0" type="line"/>
      <point x="350" y="0" type="line"/>
      <point x="350" y="125" type="line"/>
      <point x="306" y="125" type="line"/>
    </contour>
    <contour>
      <point x="306" y="605" type="line"/>
      <point x="350" y="605" type="line"/>
      <point x="350" y="730" type="line"/>
      <point x="306" y="730" type="line"/>
    </contour>
  </outline>
</glyph>
<glyph name="commaturnedabovecomb.case" format="2">
  <anchor x="56" y="720" name="_top"/>
  <anchor x="56" y="916" name="top"/>
  <outline>
    <contour>
      <point x="57" y="761" type="curve" smooth="yes"/>
      <point x="83" y="761"/>
      <point x="101" y="777"/>
      <point x="101" y="802" type="curve" smooth="yes"/>
      <point x="101" y="828"/>
      <point x="84" y="842"/>
      <point x="61" y="842" type="curve" smooth="yes"/>
      <point x="40" y="842"/>
      <point x="29" y="830"/>
      <point x="24" y="815" type="curve"/>
      <point x="33" y="815" type="line"/>
      <point x="33" y="849" type="line" smooth="yes"/>
      <point x="32" y="904"/>
      <point x="55" y="930"/>
      <point x="98" y="930" type="curve" smooth="yes"/>
      <point x="107" y="930" type="line"/>
      <point x="107" y="959" type="line"/>
      <point x="99" y="959" type="line" smooth="yes"/>
      <point x="37" y="959"/>
      <point x="0" y="923"/>
      <point x="0" y="846" type="curve" smooth="yes"/>
      <point x="0" y="842" type="line" smooth="yes"/>
      <point x="0" y="786"/>
      <point x="23" y="761"/>
    </contour>
  </outline>
</glyph>
<glyph name="currency.tnum" format="2">
  <advance width="632"/>
  <outline>
    <contour>
      <point x="316" y="156" type="curve" smooth="yes"/>
      <point x="444" y="156"/>
      <point x="525" y="257"/>
      <point x="525" y="365" type="curve" smooth="yes"/>
      <point x="525" y="376" type="line" smooth="yes"/>
      <point x="525" y="487"/>
      <point x="444" y="585"/>
      <point x="316" y="585" type="curve" smooth="yes"/>
      <point x="188" y="585"/>
      <point x="107" y="487"/>
      <point x="107" y="376" type="curve" smooth="yes"/>
      <point x="107" y="365" type="line" smooth="yes"/>
      <point x="107" y="257"/>
      <point x="188" y="156"/>
    </contour>
    <contour>
      <point x="90" y="117" type="line"/>
      <point x="188" y="213" type="line"/>
      <point x="160" y="242" type="line"/>
      <point x="61" y="146" type="line"/>
    </contour>
    <contour>
      <point x="160" y="499" type="line"/>
      <point x="188" y="527" type="line"/>
      <point x="90" y="624" type="line"/>
      <point x="61" y="595" type="line"/>
    </contour>
    <contour>
      <point x="316" y="197" type="curve" smooth="yes"/>
      <point x="216" y="197"/>
      <point x="151" y="274"/>
      <point x="151" y="370" type="curve" smooth="yes"/>
      <point x="151" y="469"/>
      <point x="216" y="544"/>
      <point x="316" y="544" type="curve" smooth="yes"/>
      <point x="416" y="544"/>
      <point x="481" y="469"/>
      <point x="481" y="370" type="curve" smooth="yes"/>
      <point x="481" y="274"/>
      <point x="417" y="197"/>
    </contour>
    <contour>
      <point x="542" y="117" type="line"/>
      <point x="571" y="146" type="line"/>
      <point x="473" y="242" type="line"/>
      <point x="444" y="213" type="line"/>
    </contour>
    <contour>
      <point x="473" y="499" type="line"/>
      <point x="571" y="595" type="line"/>
      <point x="542" y="624" type="line"/>
      <point x="444" y="527" type="line"/>
    </contour>
  </outline>
</glyph>
<glyph name="divide.tnum" format="2">
  <advance width="632"/>
  <outline>
    <contour>
      <point x="97" y="325" type="line"/>
      <point x="536" y="325" type="line"/>
      <point x="536" y="365" type="line"/>
      <point x="97" y="365" type="line"/>
    </contour>
    <contour>
      <point x="284" y="117" type="line"/>
      <point x="349" y="117" type="line"/>
      <point x="349" y="189" type="line"/>
      <point x="284" y="189" type="line"/>
    </contour>
    <contour>
      <point x="284" y="501" type="line"/>
      <point x="349" y="501" type="line"/>
      <point x="349" y="572" type="line"/>
      <point x="284" y="572" type="line"/>
    </contour>
  </outline>
</glyph>
<glyph name="dollar.tnum" format="2">
  <advance width="632"/>
  <outline>
    <contour>
      <point x="330" y="2" type="curve" smooth="yes"/>
      <point x="491" y="2"/>
      <point x="576" y="83"/>
      <point x="576" y="197" type="curve" smooth="yes"/>
      <point x="576" y="303"/>
      <point x="500" y="383"/>
      <point x="361" y="396" type="curve" smooth="yes"/>
      <point x="301" y="402" type="line" smooth="yes"/>
      <point x="207" y="412"/>
      <point x="156" y="460"/>
      <point x="156" y="539" type="curve" smooth="yes"/>
      <point x="156" y="621"/>
      <point x="208" y="685"/>
      <point x="325" y="685" type="curve" smooth="yes"/>
      <point x="449" y="685"/>
      <point x="502" y="607"/>
      <point x="502" y="518" type="curve"/>
      <point x="548" y="518" type="line"/>
      <point x="548" y="637"/>
      <point x="473" y="728"/>
      <point x="325" y="728" type="curve" smooth="yes"/>
      <point x="182" y="728"/>
      <point x="109" y="647"/>
      <point x="109" y="539" type="curve" smooth="yes"/>
      <point x="109" y="432"/>
      <point x="179" y="370"/>
      <point x="296" y="358" type="curve" smooth="yes"/>
      <point x="356" y="352" type="line" smooth="yes"/>
      <point x="474" y="340"/>
      <point x="529" y="277"/>
      <point x="529" y="197" type="curve" smooth="yes"/>
      <point x="529" y="106"/>
      <point x="462" y="45"/>
      <point x="330" y="45" type="curve" smooth="yes"/>
      <point x="184" y="45"/>
      <point x="121" y="119"/>
      <point x="121" y="222" type="curve"/>
      <point x="74" y="222" type="line"/>
      <point x="74" y="93"/>
      <point x="157" y="2"/>
    </contour>
    <contour>
      <point x="307" y="-129" type="line"/>
      <point x="351" y="-129" type="line"/>
      <point x="351" y="17" type="line"/>
      <point x="307" y="17" type="line"/>
    </contour>
    <contour>
      <point x="303" y="701" type="line"/>
      <point x="347" y="701" type="line"/>
      <point x="347" y="827" type="line"/>
      <point x="303" y="827" type="line"/>
    </contour>
  </outline>
</glyph>
<glyph name="endash.case" format="2">
  <advance width="499"/>
  <outline>
    <contour>
      <point x="18" y="351" type="line"/>
      <point x="481" y="351" type="line"/>
      <point x="481" y="392" type="line"/>
      <point x="18" y="392" type="line"/>
    </contour>
  </outline>
</glyph>
<glyph name="f.salt" format="2">
  <advance width="361"/>
  <outline>
    <contour>
      <point x="124" y="0" type="line"/>
      <point x="171" y="0" type="line"/>
      <point x="171" y="630" type="line" smooth="yes"/>
      <point x="171" y="674"/>
      <point x="195" y="702"/>
      <point x="241" y="702" type="curve" smooth="yes"/>
      <point x="283" y="702"/>
      <point x="312" y="674"/>
      <point x="312" y="630" type="curve"/>
      <point x="353" y="630" type="line"/>
      <point x="353" y="691"/>
      <point x="312" y="743"/>
      <point x="240" y="743" type="curve" smooth="yes"/>
      <point x="165" y="743"/>
      <point x="124" y="692"/>
      <point x="124" y="627" type="curve" smooth="yes"/>
    </contour>
    <contour>
      <point x="41" y="481" type="line"/>
      <point x="343" y="481" type="line"/>
      <point x="343" y="520" type="line"/>
      <point x="41" y="520" type="line"/>
    </contour>
  </outline>
</glyph>
<glyph name="f_f_i" format="2">
  <advance width="976"/>
  <outline>
    <contour>
      <point x="120" y="0" type="line"/>
      <point x="167" y="0" type="line"/>
      <point x="167" y="602" type="line" smooth="yes"/>
      <point x="167" y="662"/>
      <point x="200" y="696"/>
      <point x="264" y="696" type="curve" smooth="yes"/>
      <point x="335" y="696" type="line"/>
      <point x="335" y="739" type="line"/>
      <point x="275" y="739" type="line" smooth="yes"/>
      <point x="170" y="739"/>
      <point x="120" y="691"/>
      <point x="120" y="589" type="curve" smooth="yes"/>
    </contour>
    <contour>
      <point x="453" y="0" type="line"/>
      <point x="500" y="0" type="line"/>
      <point x="500" y="596" type="line" smooth="yes"/>
      <point x="500" y="656"/>
      <point x="534" y="690"/>
      <point x="597" y="690" type="curve" smooth="yes"/>
      <point x="670" y="690" type="line"/>
      <point x="670" y="733" type="line"/>
      <point x="609" y="733" type="line" smooth="yes"/>
      <point x="503" y="733"/>
      <point x="453" y="685"/>
      <point x="453" y="583" type="curve" smooth="yes"/>
    </contour>
    <contour>
      <point x="822" y="0" type="line"/>
      <point x="870" y="0" type="line"/>
      <point x="870" y="524" type="line"/>
      <point x="822" y="524" type="line"/>
    </contour>
    <contour>
      <point x="38" y="485" type="line"/>
      <point x="677" y="485" type="line"/>
      <point x="677" y="524" type="line"/>
      <point x="38" y="524" type="line"/>
    </contour>
    <contour>
      <point x="735" y="482" type="line"/>
      <point x="870" y="482" type="line"/>
      <point x="870" y="524" type="line"/>
      <point x="735" y="524" type="line"/>
    </contour>
    <contour>
      <point x="824" y="637" type="curve" smooth="yes"/>
      <point x="852" y="637"/>
      <point x="866" y="653"/>
      <point x="866" y="676" type="curve" smooth="yes"/>
      <point x="866" y="699"/>
      <point x="852" y="716"/>
      <point x="824" y="716" type="curve" smooth="yes"/>
      <point x="797" y="716"/>
      <point x="783" y="699"/>
      <point x="783" y="676" type="curve" smooth="yes"/>
      <point x="783" y="653"/>
      <point x="797" y="637"/>
    </contour>
  </outline>
</glyph>
<glyph name="fi.salt" format="2">
  <advance width="629"/>
  <outline>
    <contour>
      <point x="124" y="0" type="line"/>
      <point x="171" y="0" type="line"/>
      <point x="171" y="631" type="line" smooth="yes"/>
      <point x="171" y="674"/>
      <point x="194" y="702"/>
      <point x="240" y="702" type="curve" smooth="yes"/>
      <point x="280" y="702"/>
      <point x="309" y="674"/>
      <point x="309" y="631" type="curve"/>
      <point x="350" y="631" type="line"/>
      <point x="350" y="693"/>
      <point x="310" y="743"/>
      <point x="239" y="743" type="curve" smooth="yes"/>
      <point x="164" y="743"/>
      <point x="124" y="693"/>
      <point x="124" y="628" type="curve" smooth="yes"/>
    </contour>
    <contour>
      <point x="41" y="485" type="line"/>
      <point x="330" y="485" type="line"/>
      <point x="330" y="524" type="line"/>
      <point x="41" y="524" type="line"/>
    </contour>
    <contour>
      <point x="475" y="0" type="line"/>
      <point x="523" y="0" type="line"/>
      <point x="523" y="524" type="line"/>
      <point x="475" y="524" type="line"/>
    </contour>
    <contour>
      <point x="392" y="482" type="line"/>
      <point x="523" y="482" type="line"/>
      <point x="523" y="524" type="line"/>
      <point x="392" y="524" type="line"/>
    </contour>
    <contour>
      <point x="478" y="637" type="curve" smooth="yes"/>
      <point x="505" y="637"/>
      <point x="519" y="653"/>
      <point x="519" y="676" type="curve" smooth="yes"/>
      <point x="519" y="699"/>
      <point x="505" y="716"/>
      <point x="478" y="716" type="curve" smooth="yes"/>
      <point x="451" y="716"/>
      <point x="437" y="699"/>
      <point x="437" y="676" type="curve" smooth="yes"/>
      <point x="437" y="653"/>
      <point x="451" y="637"/>
    </contour>
  </outline>
</glyph>
<glyph name="five.tnum" format="2">
  <advance width="632"/>
  <outline>
    <contour>
      <point x="324" y="-16" type="curve" smooth="yes"/>
      <point x="485" y="-16"/>
      <point x="568" y="94"/>
      <point x="568" y="212" type="curve" smooth="yes"/>
      <point x="568" y="225" type="line" smooth="yes"/>
      <point x="568" y="343"/>
      <point x="486" y="454"/>
      <point x="325" y="454" type="curve" smooth="yes"/>
      <point x="252" y="454"/>
      <point x="197" y="427"/>
      <point x="152" y="383" type="curve"/>
      <point x="172" y="382" type="line"/>
      <point x="204" y="704" type="line"/>
      <point x="187" y="687" type="line"/>
      <point x="503" y="687" type="line"/>
      <point x="503" y="730" type="line"/>
      <point x="164" y="730" type="line"/>
      <point x="126" y="352" type="line"/>
      <point x="171" y="352" type="line"/>
      <point x="211" y="390"/>
      <point x="267" y="411"/>
      <point x="324" y="411" type="curve" smooth="yes"/>
      <point x="454" y="411"/>
      <point x="521" y="326"/>
      <point x="521" y="219" type="curve" smooth="yes"/>
      <point x="521" y="112"/>
      <point x="454" y="27"/>
      <point x="324" y="27" type="curve" smooth="yes"/>
      <point x="196" y="27"/>
      <point x="128" y="111"/>
      <point x="128" y="219" type="curve"/>
      <point x="81" y="219" type="line"/>
      <point x="81" y="94"/>
      <point x="164" y="-16"/>
    </contour>
  </outline>
</glyph>
<glyph name="fl.salt" format="2">
  <advance width="634"/>
  <outline>
    <contour>
      <point x="124" y="0" type="line"/>
      <point x="171" y="0" type="line"/>
      <point x="171" y="631" type="line" smooth="yes"/>
      <point x="171" y="674"/>
      <point x="195" y="702"/>
      <point x="239" y="702" type="curve" smooth="yes"/>
      <point x="279" y="702"/>
      <point x="307" y="674"/>
      <point x="307" y="631" type="curve"/>
      <point x="349" y="631" type="line"/>
      <point x="349" y="692"/>
      <point x="308" y="743"/>
      <point x="238" y="743" type="curve" smooth="yes"/>
      <point x="164" y="743"/>
      <point x="124" y="692"/>
      <point x="124" y="628" type="curve" smooth="yes"/>
    </contour>
    <contour>
      <point x="41" y="481" type="line"/>
      <point x="337" y="481" type="line"/>
      <point x="337" y="520" type="line"/>
      <point x="41" y="520" type="line"/>
    </contour>
    <contour>
      <point x="535" y="-6" type="curve" smooth="yes"/>
      <point x="589" y="-6" type="line"/>
      <point x="589" y="37" type="line"/>
      <point x="530" y="37" type="line" smooth="yes"/>
      <point x="500" y="37"/>
      <point x="486" y="52"/>
      <point x="486" y="89" type="curve" smooth="yes"/>
      <point x="486" y="730" type="line"/>
      <point x="438" y="730" type="line"/>
      <point x="438" y="93" type="line" smooth="yes"/>
      <point x="438" y="21"/>
      <point x="477" y="-6"/>
    </contour>
  </outline>
</glyph>
<glyph name="four.tnum" format="2">
  <advance width="632"/>
  <outline>
    <contour>
      <point x="64" y="193" type="line"/>
      <point x="593" y="193" type="line"/>
      <point x="593" y="233" type="line"/>
      <point x="114" y="233" type="line"/>
      <point x="106" y="245" type="line"/>
      <point x="412" y="712" type="line"/>
      <point x="379" y="739" type="line"/>
      <point x="64" y="257" type="line"/>
    </contour>
    <contour>
      <point x="445" y="0" type="line"/>
      <point x="491" y="0" type="line"/>
      <point x="491" y="510" type="line"/>
      <point x="445" y="510" type="line"/>
    </contour>
  </outline>
</glyph>
<glyph name="gravecomb.case" format="2">
  <anchor x="140" y="730" name="_top"/>
  <anchor x="31" y="943" name="top"/>
  <outline>
    <contour>
      <point x="123" y="799" type="line"/>
      <point x="172" y="799" type="line"/>
      <point x="57" y="943" type="line"/>
      <point x="0" y="943" type="line"/>
    </contour>
  </outline>
</glyph>
<glyph name="l.salt" format="2">
  <advance width="287"/>
  <anchor x="165" y="0" name="bottom"/>
  <anchor x="134" y="480" name="center"/>
  <anchor x="115" y="730" name="top"/>
  <anchor x="141" y="533" name="topright"/>
  <outline>
    <contour>
      <point x="188" y="-6" type="curve" smooth="yes"/>
      <point x="243" y="-6" type="line"/>
      <point x="243" y="37" type="line"/>
      <point x="184" y="37" type="line" smooth="yes"/>
      <point x="153" y="37"/>
      <point x="139" y="52"/>
      <point x="139" y="89" type="curve" smooth="yes"/>
      <point x="139" y="730" type="line"/>
      <point x="91" y="730" type="line"/>
      <point x="91" y="93" type="line" smooth="yes"/>
      <point x="91" y="21"/>
      <point x="130" y="-6"/>
    </contour>
  </outline>
</glyph>
<glyph name="macroncomb.case" format="2">
  <anchor x="142" y="730" name="_top"/>
  <anchor x="142" y="934" name="top"/>
  <outline>
    <contour>
      <point x="0" y="851" type="line"/>
      <point x="284" y="851" type="line"/>
      <point x="284" y="889" type="line"/>
      <point x="0" y="889" type="line"/>
    </contour>
  </outline>
</glyph>
<glyph name="minus.tnum" format="2">
  <advance width="632"/>
  <outline>
    <contour>
      <point x="97" y="324" type="line"/>
      <point x="536" y="324" type="line"/>
      <point x="536" y="364" type="line"/>
      <point x="97" y="364" type="line"/>
    </contour>
  </outline>
</glyph>
<glyph name="multiply.tnum" format="2">
  <advance width="632"/>
  <outline>
    <contour>
      <point x="129" y="133" type="line"/>
      <point x="101" y="161" type="line"/>
      <point x="504" y="558" type="line"/>
      <point x="531" y="531" type="line"/>
    </contour>
    <contour>
      <point x="503" y="132" type="line"/>
      <point x="101" y="531" type="line"/>
      <point x="130" y="559" type="line"/>
      <point x="531" y="161" type="line"/>
    </contour>
  </outline>
</glyph>
<glyph name="ogonekcomb.case" format="2">
  <anchor x="207" y="10" name="_ogonek"/>
  <outline>
    <contour>
      <point x="173" y="-246" type="curve" smooth="yes"/>
      <point x="192" y="-246"/>
      <point x="207" y="-243"/>
      <point x="222" y="-237" type="curve"/>
      <point x="222" y="-199" type="line"/>
      <point x="206" y="-205"/>
      <point x="189" y="-208"/>
      <point x="174" y="-208" type="curve" smooth="yes"/>
      <point x="136" y="-208"/>
      <point x="109" y="-186"/>
      <point x="109" y="-142" type="curve" smooth="yes"/>
      <point x="109" y="-97"/>
      <point x="134" y="-57"/>
      <point x="181" y="-20" type="curve" smooth="yes"/>
      <point x="207" y="0" type="line"/>
      <point x="187" y="26" type="line"/>
      <point x="162" y="7" type="line" smooth="yes"/>
      <point x="107" y="-36"/>
      <point x="70" y="-84"/>
      <point x="70" y="-145" type="curve" smooth="yes"/>
      <point x="70" y="-208"/>
      <point x="115" y="-246"/>
    </contour>
  </outline>
</glyph>
<glyph name="seven.salt" format="2">
  <advance width="523"/>
  <outline>
    <contour>
      <point x="204" y="0" type="line"/>
      <point x="251" y="0" type="line"/>
      <point x="251" y="143" type="line" smooth="yes"/>
      <point x="251" y="368"/>
      <point x="319" y="527"/>
      <point x="490" y="653" type="curve"/>
      <point x="490" y="730" type="line"/>
      <point x="23" y="730" type="line"/>
      <point x="23" y="687" type="line"/>
      <point x="441" y="687" type="line"/>
      <point x="445" y="671" type="line"/>
      <point x="284" y="555"/>
      <point x="204" y="379"/>
      <point x="204" y="143" type="curve" smooth="yes"/>
    </contour>
  </outline>
</glyph>
<glyph name="seven.tnum" format="2">
  <advance width="632"/>
  <outline>
    <contour>
      <point x="195" y="0" type="line"/>
      <point x="244" y="0" type="line"/>
      <point x="544" y="666" type="line"/>
      <point x="544" y="730" type="line"/>
      <point x="94" y="730" type="line"/>
      <point x="94" y="687" type="line"/>
      <point x="493" y="687" type="line"/>
      <point x="500" y="676" type="line"/>
    </contour>
    <contour>
      <point x="94" y="555" type="line"/>
      <point x="137" y="555" type="line"/>
      <point x="137" y="730" type="line"/>
      <point x="94" y="730" type="line"/>
    </contour>
  </outline>
</glyph>
<glyph name="t.salt" format="2">
  <advance width="455"/>
  <anchor x="264" y="0" name="bottom"/>
  <anchor x="190" y="289" name="center"/>
  <anchor x="266" y="439" name="top"/>
  <anchor x="176" y="576" name="topright"/>
  <outline>
    <contour>
      <point x="267" y="-14" type="curve" smooth="yes"/>
      <point x="355" y="-14"/>
      <point x="413" y="41"/>
      <point x="413" y="136" type="curve"/>
      <point x="371" y="136" type="line"/>
      <point x="371" y="60"/>
      <point x="327" y="28"/>
      <point x="269" y="28" type="curve" smooth="yes"/>
      <point x="212" y="28"/>
      <point x="169" y="60"/>
      <point x="169" y="136" type="curve" smooth="yes"/>
      <point x="169" y="500" type="line"/>
      <point x="122" y="500" type="line"/>
      <point x="122" y="140" type="line" smooth="yes"/>
      <point x="122" y="40"/>
      <point x="182" y="-14"/>
    </contour>
    <contour>
      <point x="24" y="485" type="line"/>
      <point x="384" y="485" type="line"/>
      <point x="384" y="524" type="line"/>
      <point x="24" y="524" type="line"/>
    </contour>
    <contour>
      <point x="122" y="508" type="line"/>
      <point x="169" y="508" type="line"/>
      <point x="169" y="692" type="line"/>
      <point x="122" y="692" type="line"/>
    </contour>
  </outline>
</glyph>
<glyph name="three.tnum" format="2">
  <advance width="632"/>
  <outline>
    <contour>
      <point x="316" y="-16" type="curve" smooth="yes"/>
      <point x="467" y="-16"/>
      <point x="555" y="86"/>
      <point x="555" y="203" type="curve" smooth="yes"/>
      <point x="555" y="216" type="line" smooth="yes"/>
      <point x="555" y="338"/>
      <point x="466" y="437"/>
      <point x="319" y="437" type="curve" smooth="yes"/>
      <point x="277" y="437"/>
      <point x="241" y="427"/>
      <point x="216" y="411" type="curve"/>
      <point x="239" y="409" type="line"/>
      <point x="529" y="653" type="line"/>
      <point x="529" y="730" type="line"/>
      <point x="106" y="730" type="line"/>
      <point x="106" y="687" type="line"/>
      <point x="483" y="687" type="line"/>
      <point x="490" y="674" type="line"/>
      <point x="186" y="419" type="line"/>
      <point x="218" y="369" type="line"/>
      <point x="243" y="386"/>
      <point x="274" y="396"/>
      <point x="318" y="396" type="curve" smooth="yes"/>
      <point x="435" y="396"/>
      <point x="507" y="322"/>
      <point x="507" y="210" type="curve" smooth="yes"/>
      <point x="507" y="101"/>
      <point x="432" y="27"/>
      <point x="316" y="27" type="curve" smooth="yes"/>
      <point x="197" y="27"/>
      <point x="125" y="101"/>
      <point x="125" y="213" type="curve"/>
      <point x="78" y="213" type="line"/>
      <point x="78" y="84"/>
      <point x="165" y="-16"/>
    </contour>
  </outline>
</glyph>
<glyph name="tildecomb.case" format="2">
  <anchor x="158" y="730" name="_top"/>
  <anchor x="158" y="934" name="top"/>
  <outline>
    <contour>
      <point x="227" y="826" type="curve" smooth="yes"/>
      <point x="267" y="826"/>
      <point x="301" y="848"/>
      <point x="321" y="881" type="curve"/>
      <point x="299" y="907" type="line"/>
      <point x="283" y="878"/>
      <point x="256" y="864"/>
      <point x="228" y="864" type="curve" smooth="yes"/>
      <point x="175" y="864"/>
      <point x="156" y="912"/>
      <point x="95" y="912" type="curve" smooth="yes"/>
      <point x="53" y="912"/>
      <point x="18" y="890"/>
      <point x="0" y="857" type="curve"/>
      <point x="22" y="831" type="line"/>
      <point x="38" y="860"/>
      <point x="65" y="874"/>
      <point x="94" y="874" type="curve" smooth="yes"/>
      <point x="146" y="874"/>
      <point x="166" y="826"/>
    </contour>
  </outline>
</glyph>
<glyph name="yen.tnum" format="2">
  <advance width="632"/>
  <outline>
    <contour>
      <point x="279" y="316" type="line"/>
      <point x="365" y="316" type="line"/>
      <point x="577" y="730" type="line"/>
      <point x="528" y="730" type="line"/>
      <point x="331" y="341" type="line"/>
      <point x="358" y="349" type="line"/>
      <point x="288" y="349" type="line"/>
      <point x="314" y="341" type="line"/>
      <point x="107" y="730" type="line"/>
      <point x="56" y="730" type="line"/>
    </contour>
    <contour>
      <point x="298" y="0" type="line"/>
      <point x="343" y="0" type="line"/>
      <point x="343" y="327" type="line"/>
      <point x="298" y="327" type="line"/>
    </contour>
    <contour>
      <point x="86" y="170" type="line"/>
      <point x="555" y="170" type="line"/>
      <point x="555" y="207" type="line"/>
      <point x="86" y="207" type="line"/>
    </contour>
    <contour>
      <point x="86" y="311" type="line"/>
      <point x="555" y="311" type="line"/>
      <point x="555" y="349" type="line"/>
      <point x="86" y="349" type="line"/>
    </contour>
  </outline>
</glyph>
